<mxfile host="app.diagrams.net" modified="2020-09-07T00:23:41.910Z" agent="5.0 (Windows NT 10.0; Win64; x64) AppleWebKit/537.36 (KHTML, like Gecko) Chrome/84.0.4147.125 YaBrowser/20.8.2.92 Yowser/2.5 Safari/537.36" etag="lQaRI1hcgv5do8Ktj7Hc" version="13.6.6" type="github" pages="7">
  <diagram id="C5RBs43oDa-KdzZeNtuy" name="Page-1">
    <mxGraphModel dx="1054" dy="585" grid="0" gridSize="10" guides="1" tooltips="1" connect="1" arrows="1" fold="1" page="1" pageScale="1" pageWidth="827" pageHeight="1169" math="0" shadow="0">
      <root>
        <mxCell id="WIyWlLk6GJQsqaUBKTNV-0" />
        <mxCell id="WIyWlLk6GJQsqaUBKTNV-1" parent="WIyWlLk6GJQsqaUBKTNV-0" />
        <mxCell id="c_pC5c1BMB6gCE4JTv8L-39" style="edgeStyle=orthogonalEdgeStyle;rounded=0;orthogonalLoop=1;jettySize=auto;html=1;" parent="WIyWlLk6GJQsqaUBKTNV-1" source="WIyWlLk6GJQsqaUBKTNV-7" target="c_pC5c1BMB6gCE4JTv8L-38" edge="1">
          <mxGeometry relative="1" as="geometry" />
        </mxCell>
        <mxCell id="WIyWlLk6GJQsqaUBKTNV-7" value="Создание ИЗ на основе заказа" style="rounded=1;whiteSpace=wrap;html=1;fontSize=12;glass=0;strokeWidth=1;shadow=0;fillColor=#d5e8d4;strokeColor=#82b366;" parent="WIyWlLk6GJQsqaUBKTNV-1" vertex="1">
          <mxGeometry x="73" y="488" width="140" height="45" as="geometry" />
        </mxCell>
        <mxCell id="ZHzvoA355msmICCRQiXV-10" style="edgeStyle=orthogonalEdgeStyle;rounded=0;orthogonalLoop=1;jettySize=auto;html=1;" parent="WIyWlLk6GJQsqaUBKTNV-1" source="c_pC5c1BMB6gCE4JTv8L-0" edge="1">
          <mxGeometry relative="1" as="geometry">
            <mxPoint x="299.9999999999998" y="374.88235294117646" as="targetPoint" />
          </mxGeometry>
        </mxCell>
        <mxCell id="c_pC5c1BMB6gCE4JTv8L-0" value="Созданы сообщения ТПиР" style="shape=hexagon;perimeter=hexagonPerimeter2;whiteSpace=wrap;html=1;size=0.07142857142857142;strokeColor=#ae4132;fillColor=#FACDE8;" parent="WIyWlLk6GJQsqaUBKTNV-1" vertex="1">
          <mxGeometry x="230" y="281" width="140" height="60" as="geometry" />
        </mxCell>
        <mxCell id="KrrMwuWqhKUmEiuDbbGa-2" style="edgeStyle=orthogonalEdgeStyle;rounded=0;orthogonalLoop=1;jettySize=auto;html=1;entryX=0.5;entryY=0;entryDx=0;entryDy=0;" parent="WIyWlLk6GJQsqaUBKTNV-1" source="c_pC5c1BMB6gCE4JTv8L-8" target="WIyWlLk6GJQsqaUBKTNV-7" edge="1">
          <mxGeometry relative="1" as="geometry">
            <Array as="points">
              <mxPoint x="594" y="458" />
              <mxPoint x="168" y="458" />
            </Array>
          </mxGeometry>
        </mxCell>
        <mxCell id="c_pC5c1BMB6gCE4JTv8L-8" value="" style="shape=sumEllipse;perimeter=ellipsePerimeter;whiteSpace=wrap;html=1;backgroundOutline=1;" parent="WIyWlLk6GJQsqaUBKTNV-1" vertex="1">
          <mxGeometry x="579" y="379" width="30" height="30" as="geometry" />
        </mxCell>
        <mxCell id="c_pC5c1BMB6gCE4JTv8L-16" value="Ведение плановых расценок&lt;br&gt;УНЦ" style="rounded=1;whiteSpace=wrap;html=1;fillColor=#d5e8d4;strokeColor=#82b366;" parent="WIyWlLk6GJQsqaUBKTNV-1" vertex="1">
          <mxGeometry x="534" y="114" width="120" height="60" as="geometry" />
        </mxCell>
        <mxCell id="ZHzvoA355msmICCRQiXV-15" style="edgeStyle=orthogonalEdgeStyle;rounded=0;orthogonalLoop=1;jettySize=auto;html=1;entryX=0.5;entryY=0;entryDx=0;entryDy=0;" parent="WIyWlLk6GJQsqaUBKTNV-1" source="c_pC5c1BMB6gCE4JTv8L-32" target="c_pC5c1BMB6gCE4JTv8L-8" edge="1">
          <mxGeometry relative="1" as="geometry" />
        </mxCell>
        <mxCell id="KrrMwuWqhKUmEiuDbbGa-9" style="edgeStyle=orthogonalEdgeStyle;rounded=0;orthogonalLoop=1;jettySize=auto;html=1;entryX=0.5;entryY=0;entryDx=0;entryDy=0;" parent="WIyWlLk6GJQsqaUBKTNV-1" source="c_pC5c1BMB6gCE4JTv8L-32" target="c_pC5c1BMB6gCE4JTv8L-42" edge="1">
          <mxGeometry relative="1" as="geometry">
            <mxPoint x="734" y="496" as="targetPoint" />
            <Array as="points">
              <mxPoint x="711" y="311" />
              <mxPoint x="711" y="566" />
              <mxPoint x="368" y="566" />
            </Array>
          </mxGeometry>
        </mxCell>
        <mxCell id="c_pC5c1BMB6gCE4JTv8L-32" value="Заведены технологические карты с расценками" style="shape=hexagon;perimeter=hexagonPerimeter2;whiteSpace=wrap;html=1;size=0.07142857142857142;strokeColor=#ae4132;fillColor=#FACDE8;" parent="WIyWlLk6GJQsqaUBKTNV-1" vertex="1">
          <mxGeometry x="532" y="281" width="124" height="60" as="geometry" />
        </mxCell>
        <mxCell id="c_pC5c1BMB6gCE4JTv8L-33" style="edgeStyle=orthogonalEdgeStyle;rounded=0;orthogonalLoop=1;jettySize=auto;html=1;entryX=0.5;entryY=0;entryDx=0;entryDy=0;" parent="WIyWlLk6GJQsqaUBKTNV-1" source="c_pC5c1BMB6gCE4JTv8L-16" target="c_pC5c1BMB6gCE4JTv8L-32" edge="1">
          <mxGeometry relative="1" as="geometry">
            <mxPoint x="757" y="123" as="sourcePoint" />
            <mxPoint x="502" y="193" as="targetPoint" />
          </mxGeometry>
        </mxCell>
        <mxCell id="c_pC5c1BMB6gCE4JTv8L-38" value="Головной заказ создан, созданы подзаказы для ведения плановой стоимости" style="shape=hexagon;perimeter=hexagonPerimeter2;whiteSpace=wrap;html=1;size=0.07142857142857142;strokeColor=#ae4132;fillColor=#FACDE8;" parent="WIyWlLk6GJQsqaUBKTNV-1" vertex="1">
          <mxGeometry x="73" y="578" width="140" height="60" as="geometry" />
        </mxCell>
        <mxCell id="c_pC5c1BMB6gCE4JTv8L-43" value="Расчет индекса технического состояния ИЗ" style="rounded=1;whiteSpace=wrap;html=1;fontSize=12;glass=0;strokeWidth=1;shadow=0;fillColor=#d5e8d4;strokeColor=#82b366;" parent="WIyWlLk6GJQsqaUBKTNV-1" vertex="1">
          <mxGeometry x="499" y="971" width="140" height="40" as="geometry" />
        </mxCell>
        <mxCell id="RBD4TrE846BEy6D8oZNa-5" style="edgeStyle=orthogonalEdgeStyle;rounded=0;orthogonalLoop=1;jettySize=auto;html=1;exitX=0.5;exitY=1;exitDx=0;exitDy=0;entryX=0.5;entryY=0;entryDx=0;entryDy=0;" parent="WIyWlLk6GJQsqaUBKTNV-1" source="c_pC5c1BMB6gCE4JTv8L-42" target="RBD4TrE846BEy6D8oZNa-1" edge="1">
          <mxGeometry relative="1" as="geometry" />
        </mxCell>
        <mxCell id="c_pC5c1BMB6gCE4JTv8L-42" value="Ведение общей плановой стоимости&amp;nbsp;" style="rounded=1;whiteSpace=wrap;html=1;fontSize=12;glass=0;strokeWidth=1;shadow=0;fillColor=#d5e8d4;strokeColor=#82b366;" parent="WIyWlLk6GJQsqaUBKTNV-1" vertex="1">
          <mxGeometry x="273" y="588" width="139" height="40" as="geometry" />
        </mxCell>
        <mxCell id="c_pC5c1BMB6gCE4JTv8L-46" style="edgeStyle=orthogonalEdgeStyle;rounded=0;orthogonalLoop=1;jettySize=auto;html=1;" parent="WIyWlLk6GJQsqaUBKTNV-1" source="c_pC5c1BMB6gCE4JTv8L-38" target="c_pC5c1BMB6gCE4JTv8L-42" edge="1">
          <mxGeometry relative="1" as="geometry">
            <mxPoint x="503" y="634.5" as="targetPoint" />
            <mxPoint x="393" y="634.5" as="sourcePoint" />
          </mxGeometry>
        </mxCell>
        <mxCell id="c_pC5c1BMB6gCE4JTv8L-53" value="P.01.01.04" style="text;html=1;strokeColor=none;fillColor=none;align=center;verticalAlign=middle;whiteSpace=wrap;rounded=0;" parent="WIyWlLk6GJQsqaUBKTNV-1" vertex="1">
          <mxGeometry x="168" y="475" width="70" height="20" as="geometry" />
        </mxCell>
        <mxCell id="c_pC5c1BMB6gCE4JTv8L-54" value="P.01.01.01" style="text;html=1;strokeColor=none;fillColor=none;align=center;verticalAlign=middle;whiteSpace=wrap;rounded=0;" parent="WIyWlLk6GJQsqaUBKTNV-1" vertex="1">
          <mxGeometry x="583" y="94" width="71" height="20" as="geometry" />
        </mxCell>
        <mxCell id="c_pC5c1BMB6gCE4JTv8L-55" value="P.01.01.02" style="text;html=1;strokeColor=none;fillColor=none;align=center;verticalAlign=middle;whiteSpace=wrap;rounded=0;" parent="WIyWlLk6GJQsqaUBKTNV-1" vertex="1">
          <mxGeometry x="308" y="189" width="71" height="20" as="geometry" />
        </mxCell>
        <mxCell id="c_pC5c1BMB6gCE4JTv8L-56" value="P.01.01.03" style="text;html=1;strokeColor=none;fillColor=none;align=center;verticalAlign=middle;whiteSpace=wrap;rounded=0;" parent="WIyWlLk6GJQsqaUBKTNV-1" vertex="1">
          <mxGeometry x="308" y="354" width="71" height="20" as="geometry" />
        </mxCell>
        <mxCell id="c_pC5c1BMB6gCE4JTv8L-57" value="P.01.01.05" style="text;html=1;strokeColor=none;fillColor=none;align=center;verticalAlign=middle;whiteSpace=wrap;rounded=0;" parent="WIyWlLk6GJQsqaUBKTNV-1" vertex="1">
          <mxGeometry x="361" y="893" width="71" height="20" as="geometry" />
        </mxCell>
        <mxCell id="c_pC5c1BMB6gCE4JTv8L-62" value="P.01.01.07" style="text;html=1;strokeColor=none;fillColor=none;align=center;verticalAlign=middle;whiteSpace=wrap;rounded=0;" parent="WIyWlLk6GJQsqaUBKTNV-1" vertex="1">
          <mxGeometry x="344" y="568" width="71" height="20" as="geometry" />
        </mxCell>
        <mxCell id="c_pC5c1BMB6gCE4JTv8L-74" value="P.01.01.08" style="text;html=1;strokeColor=none;fillColor=none;align=center;verticalAlign=middle;whiteSpace=wrap;rounded=0;" parent="WIyWlLk6GJQsqaUBKTNV-1" vertex="1">
          <mxGeometry x="574" y="955" width="71" height="20" as="geometry" />
        </mxCell>
        <mxCell id="c_pC5c1BMB6gCE4JTv8L-76" value="&lt;font style=&quot;font-size: 16px&quot;&gt;Формирование инвестиционной заявки Р.01.01&lt;/font&gt;" style="text;html=1;strokeColor=none;fillColor=none;align=center;verticalAlign=middle;whiteSpace=wrap;rounded=0;" parent="WIyWlLk6GJQsqaUBKTNV-1" vertex="1">
          <mxGeometry x="440" y="10" width="364" height="30" as="geometry" />
        </mxCell>
        <mxCell id="ZHzvoA355msmICCRQiXV-4" style="edgeStyle=orthogonalEdgeStyle;rounded=0;orthogonalLoop=1;jettySize=auto;html=1;entryX=0;entryY=0.5;entryDx=0;entryDy=0;" parent="WIyWlLk6GJQsqaUBKTNV-1" source="ZHzvoA355msmICCRQiXV-0" target="ZHzvoA355msmICCRQiXV-3" edge="1">
          <mxGeometry relative="1" as="geometry">
            <Array as="points">
              <mxPoint x="117" y="229" />
            </Array>
          </mxGeometry>
        </mxCell>
        <mxCell id="ZHzvoA355msmICCRQiXV-0" value="АС УПА ТОиР: приоритизированный список" style="shape=cube;whiteSpace=wrap;html=1;boundedLbl=1;backgroundOutline=1;darkOpacity=0.05;darkOpacity2=0.1;" parent="WIyWlLk6GJQsqaUBKTNV-1" vertex="1">
          <mxGeometry x="34" y="94" width="166" height="80" as="geometry" />
        </mxCell>
        <mxCell id="ZHzvoA355msmICCRQiXV-8" style="edgeStyle=orthogonalEdgeStyle;rounded=0;orthogonalLoop=1;jettySize=auto;html=1;entryX=0.5;entryY=0;entryDx=0;entryDy=0;" parent="WIyWlLk6GJQsqaUBKTNV-1" source="ZHzvoA355msmICCRQiXV-3" target="c_pC5c1BMB6gCE4JTv8L-0" edge="1">
          <mxGeometry relative="1" as="geometry" />
        </mxCell>
        <mxCell id="ZHzvoA355msmICCRQiXV-3" value="Создание сообщений ТПиР" style="rounded=1;whiteSpace=wrap;html=1;fontSize=12;glass=0;strokeWidth=1;shadow=0;fillColor=#d5e8d4;strokeColor=#82b366;" parent="WIyWlLk6GJQsqaUBKTNV-1" vertex="1">
          <mxGeometry x="222" y="209" width="156" height="40" as="geometry" />
        </mxCell>
        <mxCell id="ZHzvoA355msmICCRQiXV-7" style="edgeStyle=orthogonalEdgeStyle;rounded=0;orthogonalLoop=1;jettySize=auto;html=1;entryX=0.5;entryY=0;entryDx=0;entryDy=0;" parent="WIyWlLk6GJQsqaUBKTNV-1" source="ZHzvoA355msmICCRQiXV-6" target="ZHzvoA355msmICCRQiXV-3" edge="1">
          <mxGeometry relative="1" as="geometry" />
        </mxCell>
        <mxCell id="ZHzvoA355msmICCRQiXV-6" value="Ведение технических объектов (БДО) и НСИ" style="shape=cube;whiteSpace=wrap;html=1;boundedLbl=1;backgroundOutline=1;darkOpacity=0.05;darkOpacity2=0.1;" parent="WIyWlLk6GJQsqaUBKTNV-1" vertex="1">
          <mxGeometry x="217" y="94" width="166" height="80" as="geometry" />
        </mxCell>
        <mxCell id="ZHzvoA355msmICCRQiXV-12" style="edgeStyle=orthogonalEdgeStyle;rounded=0;orthogonalLoop=1;jettySize=auto;html=1;" parent="WIyWlLk6GJQsqaUBKTNV-1" source="ZHzvoA355msmICCRQiXV-11" edge="1">
          <mxGeometry relative="1" as="geometry">
            <mxPoint x="429.52941176470586" y="394" as="targetPoint" />
          </mxGeometry>
        </mxCell>
        <mxCell id="ZHzvoA355msmICCRQiXV-11" value="Ведение данных на сообщениях ТПиР" style="rounded=1;whiteSpace=wrap;html=1;fontSize=12;glass=0;strokeWidth=1;shadow=0;fillColor=#d5e8d4;strokeColor=#82b366;" parent="WIyWlLk6GJQsqaUBKTNV-1" vertex="1">
          <mxGeometry x="223" y="374" width="156" height="40" as="geometry" />
        </mxCell>
        <mxCell id="ZHzvoA355msmICCRQiXV-16" style="edgeStyle=orthogonalEdgeStyle;rounded=0;orthogonalLoop=1;jettySize=auto;html=1;entryX=0;entryY=0.5;entryDx=0;entryDy=0;exitX=1;exitY=0.5;exitDx=0;exitDy=0;" parent="WIyWlLk6GJQsqaUBKTNV-1" source="ZHzvoA355msmICCRQiXV-13" target="c_pC5c1BMB6gCE4JTv8L-8" edge="1">
          <mxGeometry relative="1" as="geometry">
            <mxPoint x="521" y="394" as="sourcePoint" />
            <Array as="points">
              <mxPoint x="540" y="394" />
              <mxPoint x="540" y="394" />
            </Array>
          </mxGeometry>
        </mxCell>
        <mxCell id="ZHzvoA355msmICCRQiXV-13" value="Сообщения изменены" style="shape=hexagon;perimeter=hexagonPerimeter2;whiteSpace=wrap;html=1;size=0.07142857142857142;strokeColor=#ae4132;fillColor=#FACDE8;" parent="WIyWlLk6GJQsqaUBKTNV-1" vertex="1">
          <mxGeometry x="428" y="364" width="80" height="60" as="geometry" />
        </mxCell>
        <mxCell id="ZHzvoA355msmICCRQiXV-17" style="edgeStyle=orthogonalEdgeStyle;rounded=0;orthogonalLoop=1;jettySize=auto;html=1;entryX=0;entryY=0.5;entryDx=0;entryDy=0;" parent="WIyWlLk6GJQsqaUBKTNV-1" source="ZHzvoA355msmICCRQiXV-18" edge="1">
          <mxGeometry relative="1" as="geometry">
            <Array as="points">
              <mxPoint x="151" y="391.5" />
            </Array>
            <mxPoint x="222" y="391.5" as="targetPoint" />
          </mxGeometry>
        </mxCell>
        <mxCell id="ZHzvoA355msmICCRQiXV-18" value="Инициатор" style="ellipse;whiteSpace=wrap;html=1;fillColor=#fff2cc;strokeColor=#d6b656;" parent="WIyWlLk6GJQsqaUBKTNV-1" vertex="1">
          <mxGeometry x="73" y="369" width="120" height="45" as="geometry" />
        </mxCell>
        <mxCell id="ZHzvoA355msmICCRQiXV-21" style="edgeStyle=orthogonalEdgeStyle;rounded=0;orthogonalLoop=1;jettySize=auto;html=1;entryX=1;entryY=0.5;entryDx=0;entryDy=0;" parent="WIyWlLk6GJQsqaUBKTNV-1" source="ZHzvoA355msmICCRQiXV-20" target="ZHzvoA355msmICCRQiXV-3" edge="1">
          <mxGeometry relative="1" as="geometry" />
        </mxCell>
        <mxCell id="ZHzvoA355msmICCRQiXV-20" value="Инициатор" style="ellipse;whiteSpace=wrap;html=1;fillColor=#fff2cc;strokeColor=#d6b656;" parent="WIyWlLk6GJQsqaUBKTNV-1" vertex="1">
          <mxGeometry x="405" y="206.5" width="120" height="45" as="geometry" />
        </mxCell>
        <mxCell id="ZHzvoA355msmICCRQiXV-23" style="edgeStyle=orthogonalEdgeStyle;rounded=0;orthogonalLoop=1;jettySize=auto;html=1;entryX=1;entryY=0.5;entryDx=0;entryDy=0;" parent="WIyWlLk6GJQsqaUBKTNV-1" source="ZHzvoA355msmICCRQiXV-22" target="c_pC5c1BMB6gCE4JTv8L-16" edge="1">
          <mxGeometry relative="1" as="geometry" />
        </mxCell>
        <mxCell id="ZHzvoA355msmICCRQiXV-22" value="Специалист" style="ellipse;whiteSpace=wrap;html=1;fillColor=#fff2cc;strokeColor=#d6b656;" parent="WIyWlLk6GJQsqaUBKTNV-1" vertex="1">
          <mxGeometry x="684" y="121.5" width="120" height="45" as="geometry" />
        </mxCell>
        <mxCell id="KrrMwuWqhKUmEiuDbbGa-4" value="Ведение сценарных условий и показателей" style="rounded=1;whiteSpace=wrap;html=1;fontSize=12;glass=0;strokeWidth=1;shadow=0;fillColor=#d5e8d4;strokeColor=#82b366;" parent="WIyWlLk6GJQsqaUBKTNV-1" vertex="1">
          <mxGeometry x="277" y="918" width="140" height="40" as="geometry" />
        </mxCell>
        <mxCell id="KrrMwuWqhKUmEiuDbbGa-11" style="edgeStyle=orthogonalEdgeStyle;rounded=0;orthogonalLoop=1;jettySize=auto;html=1;entryX=1;entryY=0.5;entryDx=0;entryDy=0;" parent="WIyWlLk6GJQsqaUBKTNV-1" source="KrrMwuWqhKUmEiuDbbGa-6" edge="1">
          <mxGeometry relative="1" as="geometry">
            <mxPoint x="410" y="610.5" as="targetPoint" />
          </mxGeometry>
        </mxCell>
        <mxCell id="KrrMwuWqhKUmEiuDbbGa-6" value="Инициатор" style="ellipse;whiteSpace=wrap;html=1;fillColor=#fff2cc;strokeColor=#d6b656;" parent="WIyWlLk6GJQsqaUBKTNV-1" vertex="1">
          <mxGeometry x="447" y="588" width="120" height="45" as="geometry" />
        </mxCell>
        <mxCell id="RBD4TrE846BEy6D8oZNa-11" style="edgeStyle=orthogonalEdgeStyle;rounded=0;orthogonalLoop=1;jettySize=auto;html=1;exitX=0.5;exitY=1;exitDx=0;exitDy=0;entryX=0.5;entryY=0;entryDx=0;entryDy=0;" parent="WIyWlLk6GJQsqaUBKTNV-1" source="KrrMwuWqhKUmEiuDbbGa-13" target="RBD4TrE846BEy6D8oZNa-7" edge="1">
          <mxGeometry relative="1" as="geometry" />
        </mxCell>
        <mxCell id="KrrMwuWqhKUmEiuDbbGa-13" value="Создание новых технических объектов" style="rounded=1;whiteSpace=wrap;html=1;fontSize=12;glass=0;strokeWidth=1;shadow=0;fillColor=#d5e8d4;strokeColor=#82b366;" parent="WIyWlLk6GJQsqaUBKTNV-1" vertex="1">
          <mxGeometry x="130" y="751" width="140" height="40" as="geometry" />
        </mxCell>
        <mxCell id="UifbFWHWKCnpqta1OFgQ-0" value="P.01.01.06" style="text;html=1;strokeColor=none;fillColor=none;align=center;verticalAlign=middle;whiteSpace=wrap;rounded=0;" parent="WIyWlLk6GJQsqaUBKTNV-1" vertex="1">
          <mxGeometry x="193" y="725" width="71" height="20" as="geometry" />
        </mxCell>
        <mxCell id="UifbFWHWKCnpqta1OFgQ-3" value="&lt;font style=&quot;font-size: 12px&quot;&gt;&lt;span style=&quot;font-family: &amp;#34;times new roman&amp;#34; , serif&quot;&gt;Ведение обосновывающих&lt;br/&gt;материалов и др. документов на базе &lt;/span&gt;&lt;span lang=&quot;EN-US&quot; style=&quot;font-family: &amp;#34;times new roman&amp;#34; , serif&quot;&gt;GCM&lt;/span&gt;&lt;/font&gt;" style="rounded=1;whiteSpace=wrap;html=1;fontSize=12;glass=0;strokeWidth=1;shadow=0;fillColor=#d5e8d4;strokeColor=#82b366;" parent="WIyWlLk6GJQsqaUBKTNV-1" vertex="1">
          <mxGeometry x="93" y="984" width="140" height="40" as="geometry" />
        </mxCell>
        <mxCell id="UifbFWHWKCnpqta1OFgQ-4" value="P.01.01.09" style="text;html=1;strokeColor=none;fillColor=none;align=center;verticalAlign=middle;whiteSpace=wrap;rounded=0;" parent="WIyWlLk6GJQsqaUBKTNV-1" vertex="1">
          <mxGeometry x="160" y="966" width="71" height="20" as="geometry" />
        </mxCell>
        <mxCell id="RBD4TrE846BEy6D8oZNa-6" style="edgeStyle=orthogonalEdgeStyle;rounded=0;orthogonalLoop=1;jettySize=auto;html=1;exitX=0;exitY=0.5;exitDx=0;exitDy=0;entryX=1;entryY=0.5;entryDx=0;entryDy=0;" parent="WIyWlLk6GJQsqaUBKTNV-1" source="RBD4TrE846BEy6D8oZNa-0" target="KrrMwuWqhKUmEiuDbbGa-13" edge="1">
          <mxGeometry relative="1" as="geometry" />
        </mxCell>
        <mxCell id="RBD4TrE846BEy6D8oZNa-16" style="edgeStyle=orthogonalEdgeStyle;rounded=0;orthogonalLoop=1;jettySize=auto;html=1;exitX=0.5;exitY=1;exitDx=0;exitDy=0;entryX=0.5;entryY=0;entryDx=0;entryDy=0;" parent="WIyWlLk6GJQsqaUBKTNV-1" source="RBD4TrE846BEy6D8oZNa-0" target="KrrMwuWqhKUmEiuDbbGa-4" edge="1">
          <mxGeometry relative="1" as="geometry" />
        </mxCell>
        <mxCell id="RBD4TrE846BEy6D8oZNa-0" value="Требуется создание нового оборудования?" style="rhombus;whiteSpace=wrap;html=1;" parent="WIyWlLk6GJQsqaUBKTNV-1" vertex="1">
          <mxGeometry x="289" y="731" width="116" height="80" as="geometry" />
        </mxCell>
        <mxCell id="VsEbySm1sSZCZi7b0_Ue-0" style="edgeStyle=orthogonalEdgeStyle;rounded=0;orthogonalLoop=1;jettySize=auto;html=1;exitX=0.5;exitY=1;exitDx=0;exitDy=0;entryX=0.5;entryY=0;entryDx=0;entryDy=0;" parent="WIyWlLk6GJQsqaUBKTNV-1" source="RBD4TrE846BEy6D8oZNa-1" target="RBD4TrE846BEy6D8oZNa-0" edge="1">
          <mxGeometry relative="1" as="geometry" />
        </mxCell>
        <mxCell id="RBD4TrE846BEy6D8oZNa-1" value="Общая плановая стоимость определена" style="shape=hexagon;perimeter=hexagonPerimeter2;whiteSpace=wrap;html=1;size=0.07142857142857142;strokeColor=#ae4132;fillColor=#FACDE8;" parent="WIyWlLk6GJQsqaUBKTNV-1" vertex="1">
          <mxGeometry x="273" y="648" width="140" height="60" as="geometry" />
        </mxCell>
        <mxCell id="RBD4TrE846BEy6D8oZNa-17" style="edgeStyle=orthogonalEdgeStyle;rounded=0;orthogonalLoop=1;jettySize=auto;html=1;exitX=0.5;exitY=1;exitDx=0;exitDy=0;entryX=0.25;entryY=0;entryDx=0;entryDy=0;" parent="WIyWlLk6GJQsqaUBKTNV-1" source="RBD4TrE846BEy6D8oZNa-7" target="KrrMwuWqhKUmEiuDbbGa-4" edge="1">
          <mxGeometry relative="1" as="geometry" />
        </mxCell>
        <mxCell id="RBD4TrE846BEy6D8oZNa-7" value="Технические объекты созданы" style="shape=hexagon;perimeter=hexagonPerimeter2;whiteSpace=wrap;html=1;size=0.07142857142857142;strokeColor=#ae4132;fillColor=#FACDE8;" parent="WIyWlLk6GJQsqaUBKTNV-1" vertex="1">
          <mxGeometry x="130" y="816" width="140" height="60" as="geometry" />
        </mxCell>
        <mxCell id="VsEbySm1sSZCZi7b0_Ue-1" style="edgeStyle=orthogonalEdgeStyle;rounded=0;orthogonalLoop=1;jettySize=auto;html=1;entryX=1;entryY=0.5;entryDx=0;entryDy=0;" parent="WIyWlLk6GJQsqaUBKTNV-1" source="VsEbySm1sSZCZi7b0_Ue-2" edge="1">
          <mxGeometry relative="1" as="geometry">
            <mxPoint x="213" y="513.5" as="targetPoint" />
          </mxGeometry>
        </mxCell>
        <mxCell id="VsEbySm1sSZCZi7b0_Ue-2" value="Инициатор" style="ellipse;whiteSpace=wrap;html=1;fillColor=#fff2cc;strokeColor=#d6b656;" parent="WIyWlLk6GJQsqaUBKTNV-1" vertex="1">
          <mxGeometry x="250" y="491" width="120" height="45" as="geometry" />
        </mxCell>
      </root>
    </mxGraphModel>
  </diagram>
  <diagram id="g-K1aQRJvWMKiFnrw95E" name="Page-2">
    <mxGraphModel dx="1054" dy="585" grid="1" gridSize="10" guides="1" tooltips="1" connect="1" arrows="1" fold="1" page="1" pageScale="1" pageWidth="827" pageHeight="1169" math="0" shadow="0">
      <root>
        <mxCell id="uIY4lNAWo-kskuUKcdKT-0" />
        <mxCell id="uIY4lNAWo-kskuUKcdKT-1" parent="uIY4lNAWo-kskuUKcdKT-0" />
        <mxCell id="2fx5i3vzgXeuOOyfsUoW-0" style="edgeStyle=orthogonalEdgeStyle;rounded=0;orthogonalLoop=1;jettySize=auto;html=1;" parent="uIY4lNAWo-kskuUKcdKT-1" source="2fx5i3vzgXeuOOyfsUoW-1" target="2fx5i3vzgXeuOOyfsUoW-3" edge="1">
          <mxGeometry relative="1" as="geometry">
            <mxPoint x="344" y="380" as="targetPoint" />
          </mxGeometry>
        </mxCell>
        <mxCell id="2fx5i3vzgXeuOOyfsUoW-1" value="Согласование ИЗ" style="rounded=1;whiteSpace=wrap;html=1;fillColor=#d5e8d4;strokeColor=#82b366;" parent="uIY4lNAWo-kskuUKcdKT-1" vertex="1">
          <mxGeometry x="259" y="300" width="170" height="40" as="geometry" />
        </mxCell>
        <mxCell id="2fx5i3vzgXeuOOyfsUoW-2" style="edgeStyle=orthogonalEdgeStyle;rounded=0;orthogonalLoop=1;jettySize=auto;html=1;" parent="uIY4lNAWo-kskuUKcdKT-1" source="2fx5i3vzgXeuOOyfsUoW-3" target="2fx5i3vzgXeuOOyfsUoW-5" edge="1">
          <mxGeometry relative="1" as="geometry">
            <mxPoint x="344" y="500" as="targetPoint" />
          </mxGeometry>
        </mxCell>
        <mxCell id="J3HqutqDwcYl1ajq24ji-3" style="edgeStyle=orthogonalEdgeStyle;rounded=0;orthogonalLoop=1;jettySize=auto;html=1;exitX=1;exitY=0.5;exitDx=0;exitDy=0;entryX=1;entryY=1;entryDx=0;entryDy=0;" parent="uIY4lNAWo-kskuUKcdKT-1" source="2fx5i3vzgXeuOOyfsUoW-3" target="2fx5i3vzgXeuOOyfsUoW-4" edge="1">
          <mxGeometry relative="1" as="geometry">
            <Array as="points">
              <mxPoint x="429" y="420" />
              <mxPoint x="429" y="420" />
            </Array>
          </mxGeometry>
        </mxCell>
        <mxCell id="2fx5i3vzgXeuOOyfsUoW-3" value="Заявка согласована?&lt;br&gt;&amp;nbsp; &amp;nbsp; &amp;nbsp;&lt;br&gt;" style="rhombus;whiteSpace=wrap;html=1;" parent="uIY4lNAWo-kskuUKcdKT-1" vertex="1">
          <mxGeometry x="297" y="380" width="94" height="80" as="geometry" />
        </mxCell>
        <mxCell id="2fx5i3vzgXeuOOyfsUoW-4" value="Нет" style="text;html=1;strokeColor=none;fillColor=none;align=center;verticalAlign=middle;whiteSpace=wrap;rounded=0;" parent="uIY4lNAWo-kskuUKcdKT-1" vertex="1">
          <mxGeometry x="409" y="400" width="40" height="20" as="geometry" />
        </mxCell>
        <mxCell id="2fx5i3vzgXeuOOyfsUoW-5" value="Передача инвестиционной заявки в АСКИД" style="shape=cube;whiteSpace=wrap;html=1;boundedLbl=1;backgroundOutline=1;darkOpacity=0.05;darkOpacity2=0.1;" parent="uIY4lNAWo-kskuUKcdKT-1" vertex="1">
          <mxGeometry x="261" y="570" width="166" height="80" as="geometry" />
        </mxCell>
        <mxCell id="2fx5i3vzgXeuOOyfsUoW-6" value="Да" style="text;html=1;strokeColor=none;fillColor=none;align=center;verticalAlign=middle;whiteSpace=wrap;rounded=0;" parent="uIY4lNAWo-kskuUKcdKT-1" vertex="1">
          <mxGeometry x="344" y="460" width="27" height="20" as="geometry" />
        </mxCell>
        <mxCell id="2fx5i3vzgXeuOOyfsUoW-7" style="edgeStyle=orthogonalEdgeStyle;rounded=0;orthogonalLoop=1;jettySize=auto;html=1;entryX=0;entryY=0.5;entryDx=0;entryDy=0;" parent="uIY4lNAWo-kskuUKcdKT-1" source="2fx5i3vzgXeuOOyfsUoW-8" target="2fx5i3vzgXeuOOyfsUoW-1" edge="1">
          <mxGeometry relative="1" as="geometry" />
        </mxCell>
        <mxCell id="2fx5i3vzgXeuOOyfsUoW-8" value="Специалист" style="ellipse;whiteSpace=wrap;html=1;fillColor=#fff2cc;strokeColor=#d6b656;" parent="uIY4lNAWo-kskuUKcdKT-1" vertex="1">
          <mxGeometry x="80" y="297.5" width="120" height="45.5" as="geometry" />
        </mxCell>
        <mxCell id="2fx5i3vzgXeuOOyfsUoW-9" value="P.01.02.01" style="text;html=1;strokeColor=none;fillColor=none;align=center;verticalAlign=middle;whiteSpace=wrap;rounded=0;" parent="uIY4lNAWo-kskuUKcdKT-1" vertex="1">
          <mxGeometry x="358" y="280" width="71" height="20" as="geometry" />
        </mxCell>
        <mxCell id="2fx5i3vzgXeuOOyfsUoW-10" value="P.01.03" style="text;html=1;strokeColor=none;fillColor=none;align=center;verticalAlign=middle;whiteSpace=wrap;rounded=0;" parent="uIY4lNAWo-kskuUKcdKT-1" vertex="1">
          <mxGeometry x="378" y="540" width="49" height="20" as="geometry" />
        </mxCell>
        <mxCell id="_XO_F-RPzfcHMEpf0Aqa-4" style="edgeStyle=orthogonalEdgeStyle;rounded=0;orthogonalLoop=1;jettySize=auto;html=1;exitX=0.5;exitY=1;exitDx=0;exitDy=0;entryX=0.5;entryY=0;entryDx=0;entryDy=0;" parent="uIY4lNAWo-kskuUKcdKT-1" source="J3HqutqDwcYl1ajq24ji-0" target="_XO_F-RPzfcHMEpf0Aqa-0" edge="1">
          <mxGeometry relative="1" as="geometry" />
        </mxCell>
        <mxCell id="J3HqutqDwcYl1ajq24ji-0" value="Отклонение и корректировка ИЗ" style="rounded=1;whiteSpace=wrap;html=1;fillColor=#d5e8d4;strokeColor=#82b366;" parent="uIY4lNAWo-kskuUKcdKT-1" vertex="1">
          <mxGeometry x="449" y="400" width="170" height="40" as="geometry" />
        </mxCell>
        <mxCell id="J3HqutqDwcYl1ajq24ji-1" value="P.01.02.02" style="text;html=1;strokeColor=none;fillColor=none;align=center;verticalAlign=middle;whiteSpace=wrap;rounded=0;" parent="uIY4lNAWo-kskuUKcdKT-1" vertex="1">
          <mxGeometry x="548" y="380" width="71" height="20" as="geometry" />
        </mxCell>
        <mxCell id="J3HqutqDwcYl1ajq24ji-8" style="edgeStyle=orthogonalEdgeStyle;rounded=0;orthogonalLoop=1;jettySize=auto;html=1;" parent="uIY4lNAWo-kskuUKcdKT-1" source="J3HqutqDwcYl1ajq24ji-4" edge="1">
          <mxGeometry relative="1" as="geometry">
            <mxPoint x="344" y="300" as="targetPoint" />
            <Array as="points">
              <mxPoint x="344" y="260" />
              <mxPoint x="344" y="260" />
            </Array>
          </mxGeometry>
        </mxCell>
        <mxCell id="J3HqutqDwcYl1ajq24ji-4" value="Формирование инвестиционной заявки" style="shape=cube;whiteSpace=wrap;html=1;boundedLbl=1;backgroundOutline=1;darkOpacity=0.05;darkOpacity2=0.1;" parent="uIY4lNAWo-kskuUKcdKT-1" vertex="1">
          <mxGeometry x="259" y="170" width="166" height="80" as="geometry" />
        </mxCell>
        <mxCell id="J3HqutqDwcYl1ajq24ji-5" value="P.01.01" style="text;html=1;strokeColor=none;fillColor=none;align=center;verticalAlign=middle;whiteSpace=wrap;rounded=0;" parent="uIY4lNAWo-kskuUKcdKT-1" vertex="1">
          <mxGeometry x="369" y="140" width="49" height="20" as="geometry" />
        </mxCell>
        <mxCell id="wHRa-c25oqksgMRBYjr--0" value="&lt;span style=&quot;font-size: 12pt&quot;&gt;Согласование инвестиционной заявки до АСКИД&amp;nbsp;&amp;nbsp;&lt;/span&gt;&lt;span style=&quot;font-size: 12pt&quot;&gt;P.01.02&lt;/span&gt;&lt;span style=&quot;font-size: 12pt&quot;&gt;&lt;br&gt;&amp;nbsp;&lt;/span&gt;" style="text;html=1;strokeColor=none;fillColor=none;align=center;verticalAlign=middle;whiteSpace=wrap;rounded=0;" parent="uIY4lNAWo-kskuUKcdKT-1" vertex="1">
          <mxGeometry x="330" y="10" width="474" height="30" as="geometry" />
        </mxCell>
        <mxCell id="_XO_F-RPzfcHMEpf0Aqa-3" style="edgeStyle=orthogonalEdgeStyle;rounded=0;orthogonalLoop=1;jettySize=auto;html=1;exitX=1;exitY=0.5;exitDx=0;exitDy=0;entryX=1;entryY=0.5;entryDx=0;entryDy=0;" parent="uIY4lNAWo-kskuUKcdKT-1" source="_XO_F-RPzfcHMEpf0Aqa-0" target="2fx5i3vzgXeuOOyfsUoW-1" edge="1">
          <mxGeometry relative="1" as="geometry">
            <Array as="points">
              <mxPoint x="800" y="500" />
              <mxPoint x="800" y="320" />
            </Array>
          </mxGeometry>
        </mxCell>
        <mxCell id="_XO_F-RPzfcHMEpf0Aqa-0" value="Заявка откорректирована" style="shape=hexagon;perimeter=hexagonPerimeter2;whiteSpace=wrap;html=1;size=0.07142857142857142;strokeColor=#ae4132;fillColor=#FACDE8;" parent="uIY4lNAWo-kskuUKcdKT-1" vertex="1">
          <mxGeometry x="464" y="470" width="140" height="60" as="geometry" />
        </mxCell>
        <mxCell id="_XO_F-RPzfcHMEpf0Aqa-2" style="edgeStyle=orthogonalEdgeStyle;rounded=0;orthogonalLoop=1;jettySize=auto;html=1;entryX=1;entryY=0.5;entryDx=0;entryDy=0;" parent="uIY4lNAWo-kskuUKcdKT-1" source="_XO_F-RPzfcHMEpf0Aqa-1" target="J3HqutqDwcYl1ajq24ji-0" edge="1">
          <mxGeometry relative="1" as="geometry" />
        </mxCell>
        <mxCell id="_XO_F-RPzfcHMEpf0Aqa-1" value="Специалист" style="ellipse;whiteSpace=wrap;html=1;fillColor=#fff2cc;strokeColor=#d6b656;" parent="uIY4lNAWo-kskuUKcdKT-1" vertex="1">
          <mxGeometry x="660" y="397.25" width="120" height="45.5" as="geometry" />
        </mxCell>
      </root>
    </mxGraphModel>
  </diagram>
  <diagram id="qCCtzFo12JJKiQEWSMpF" name="Page-3">
    <mxGraphModel dx="1054" dy="585" grid="0" gridSize="10" guides="1" tooltips="1" connect="1" arrows="1" fold="1" page="1" pageScale="1" pageWidth="827" pageHeight="1169" math="0" shadow="0">
      <root>
        <mxCell id="2nYcpS7fwBgkCxUIMv-R-0" />
        <mxCell id="2nYcpS7fwBgkCxUIMv-R-1" parent="2nYcpS7fwBgkCxUIMv-R-0" />
        <mxCell id="nf6SZ0pj0Dem82uTEeHt-0" style="edgeStyle=orthogonalEdgeStyle;rounded=0;orthogonalLoop=1;jettySize=auto;html=1;" parent="2nYcpS7fwBgkCxUIMv-R-1" source="o-uVd0T_ewzq5-CMJJRx-0" target="nf6SZ0pj0Dem82uTEeHt-1" edge="1">
          <mxGeometry relative="1" as="geometry">
            <mxPoint x="278" y="212" as="targetPoint" />
          </mxGeometry>
        </mxCell>
        <mxCell id="o-uVd0T_ewzq5-CMJJRx-0" value="&lt;font style=&quot;font-size: 12px&quot;&gt;Формирование инвестиционной заявки&lt;/font&gt;" style="shape=cube;whiteSpace=wrap;html=1;boundedLbl=1;backgroundOutline=1;darkOpacity=0.05;darkOpacity2=0.1;" parent="2nYcpS7fwBgkCxUIMv-R-1" vertex="1">
          <mxGeometry x="195" y="92" width="166" height="80" as="geometry" />
        </mxCell>
        <mxCell id="adWo_KyG0K3lABlDPwlD-0" value="P.01.01" style="text;html=1;strokeColor=none;fillColor=none;align=center;verticalAlign=middle;whiteSpace=wrap;rounded=0;" parent="2nYcpS7fwBgkCxUIMv-R-1" vertex="1">
          <mxGeometry x="312" y="72" width="49" height="20" as="geometry" />
        </mxCell>
        <mxCell id="g-H4BJ1Wary2l5bnuvEm-0" value="&lt;font style=&quot;font-size: 16px&quot;&gt;&lt;span&gt;Передача инвестиционной заявки в АСКИД&lt;/span&gt;&amp;nbsp;Р.01.03&lt;/font&gt;" style="text;html=1;strokeColor=none;fillColor=none;align=center;verticalAlign=middle;whiteSpace=wrap;rounded=0;" parent="2nYcpS7fwBgkCxUIMv-R-1" vertex="1">
          <mxGeometry x="395" y="10" width="409" height="30" as="geometry" />
        </mxCell>
        <mxCell id="L4XYOvtYmQlNElnF8uEs-2" style="edgeStyle=orthogonalEdgeStyle;rounded=0;orthogonalLoop=1;jettySize=auto;html=1;" parent="2nYcpS7fwBgkCxUIMv-R-1" source="nf6SZ0pj0Dem82uTEeHt-1" edge="1">
          <mxGeometry relative="1" as="geometry">
            <mxPoint x="278" y="292" as="targetPoint" />
          </mxGeometry>
        </mxCell>
        <mxCell id="nf6SZ0pj0Dem82uTEeHt-1" value="Изменение головного заказа: проставлен статус отправки в АСКИД" style="rounded=1;whiteSpace=wrap;html=1;fillColor=#d5e8d4;strokeColor=#82b366;" parent="2nYcpS7fwBgkCxUIMv-R-1" vertex="1">
          <mxGeometry x="208" y="202" width="140" height="60" as="geometry" />
        </mxCell>
        <mxCell id="L4XYOvtYmQlNElnF8uEs-0" value="P.01.02.01&amp;nbsp;" style="text;html=1;strokeColor=none;fillColor=none;align=center;verticalAlign=middle;whiteSpace=wrap;rounded=0;" parent="2nYcpS7fwBgkCxUIMv-R-1" vertex="1">
          <mxGeometry x="444" y="153" width="49" height="20" as="geometry" />
        </mxCell>
        <mxCell id="u_JtwXHPxepvXPoeJHaP-3" style="edgeStyle=orthogonalEdgeStyle;rounded=0;orthogonalLoop=1;jettySize=auto;html=1;entryX=0;entryY=0.5;entryDx=0;entryDy=0;" parent="2nYcpS7fwBgkCxUIMv-R-1" target="u_JtwXHPxepvXPoeJHaP-0" edge="1">
          <mxGeometry relative="1" as="geometry">
            <mxPoint x="348" y="232" as="sourcePoint" />
          </mxGeometry>
        </mxCell>
        <mxCell id="u_JtwXHPxepvXPoeJHaP-4" style="edgeStyle=orthogonalEdgeStyle;rounded=0;orthogonalLoop=1;jettySize=auto;html=1;entryX=0;entryY=0.5;entryDx=0;entryDy=0;entryPerimeter=0;" parent="2nYcpS7fwBgkCxUIMv-R-1" source="u_JtwXHPxepvXPoeJHaP-0" target="u_JtwXHPxepvXPoeJHaP-2" edge="1">
          <mxGeometry relative="1" as="geometry" />
        </mxCell>
        <mxCell id="u_JtwXHPxepvXPoeJHaP-6" style="edgeStyle=orthogonalEdgeStyle;rounded=0;orthogonalLoop=1;jettySize=auto;html=1;entryX=1;entryY=0.5;entryDx=0;entryDy=0;" parent="2nYcpS7fwBgkCxUIMv-R-1" source="u_JtwXHPxepvXPoeJHaP-0" target="nf6SZ0pj0Dem82uTEeHt-1" edge="1">
          <mxGeometry relative="1" as="geometry" />
        </mxCell>
        <mxCell id="wwP9k1EF0IvjNhawmbC7-1" style="edgeStyle=orthogonalEdgeStyle;rounded=0;orthogonalLoop=1;jettySize=auto;html=1;entryX=1;entryY=0.5;entryDx=0;entryDy=0;" parent="2nYcpS7fwBgkCxUIMv-R-1" source="u_JtwXHPxepvXPoeJHaP-0" target="wwP9k1EF0IvjNhawmbC7-0" edge="1">
          <mxGeometry relative="1" as="geometry">
            <Array as="points">
              <mxPoint x="450" y="322" />
            </Array>
          </mxGeometry>
        </mxCell>
        <mxCell id="u_JtwXHPxepvXPoeJHaP-0" value="Интерфейс" style="ellipse;whiteSpace=wrap;html=1;aspect=fixed;" parent="2nYcpS7fwBgkCxUIMv-R-1" vertex="1">
          <mxGeometry x="410" y="192" width="80" height="80" as="geometry" />
        </mxCell>
        <mxCell id="u_JtwXHPxepvXPoeJHaP-7" style="edgeStyle=orthogonalEdgeStyle;rounded=0;orthogonalLoop=1;jettySize=auto;html=1;entryX=1;entryY=0.5;entryDx=0;entryDy=0;" parent="2nYcpS7fwBgkCxUIMv-R-1" source="u_JtwXHPxepvXPoeJHaP-2" target="u_JtwXHPxepvXPoeJHaP-0" edge="1">
          <mxGeometry relative="1" as="geometry" />
        </mxCell>
        <mxCell id="3i0Y3tJkDiM5zF4m9UsL-2" style="edgeStyle=orthogonalEdgeStyle;rounded=0;orthogonalLoop=1;jettySize=auto;html=1;entryX=0.5;entryY=0;entryDx=0;entryDy=0;entryPerimeter=0;" parent="2nYcpS7fwBgkCxUIMv-R-1" source="u_JtwXHPxepvXPoeJHaP-2" target="3i0Y3tJkDiM5zF4m9UsL-1" edge="1">
          <mxGeometry relative="1" as="geometry" />
        </mxCell>
        <mxCell id="u_JtwXHPxepvXPoeJHaP-2" value="&lt;br&gt;&lt;br&gt;Создание инвестиционной заявки на стороне АСКИД.&lt;br&gt;Корректировка и согласование ИЗ." style="strokeWidth=2;html=1;shape=mxgraph.flowchart.database;whiteSpace=wrap;" parent="2nYcpS7fwBgkCxUIMv-R-1" vertex="1">
          <mxGeometry x="554" y="152" width="170" height="160" as="geometry" />
        </mxCell>
        <mxCell id="u_JtwXHPxepvXPoeJHaP-5" value="Система АСКИД" style="text;html=1;strokeColor=none;fillColor=none;align=center;verticalAlign=middle;whiteSpace=wrap;rounded=0;" parent="2nYcpS7fwBgkCxUIMv-R-1" vertex="1">
          <mxGeometry x="655" y="92" width="100" height="20" as="geometry" />
        </mxCell>
        <mxCell id="0um7T0gEFgthrOwVaBdq-1" style="edgeStyle=orthogonalEdgeStyle;rounded=0;orthogonalLoop=1;jettySize=auto;html=1;entryX=0.5;entryY=0;entryDx=0;entryDy=0;" parent="2nYcpS7fwBgkCxUIMv-R-1" source="wwP9k1EF0IvjNhawmbC7-0" target="0um7T0gEFgthrOwVaBdq-0" edge="1">
          <mxGeometry relative="1" as="geometry" />
        </mxCell>
        <mxCell id="wwP9k1EF0IvjNhawmbC7-0" value="Головной заказ изменен. Версия ИЗ заведена." style="shape=hexagon;perimeter=hexagonPerimeter2;whiteSpace=wrap;html=1;size=0.07142857142857142;strokeColor=#ae4132;fillColor=#FACDE8;" parent="2nYcpS7fwBgkCxUIMv-R-1" vertex="1">
          <mxGeometry x="208" y="292" width="140" height="60" as="geometry" />
        </mxCell>
        <mxCell id="wwP9k1EF0IvjNhawmbC7-2" value="P.01.02.02" style="text;html=1;strokeColor=none;fillColor=none;align=center;verticalAlign=middle;whiteSpace=wrap;rounded=0;" parent="2nYcpS7fwBgkCxUIMv-R-1" vertex="1">
          <mxGeometry x="442" y="173" width="49" height="20" as="geometry" />
        </mxCell>
        <mxCell id="0um7T0gEFgthrOwVaBdq-0" value="Ведение журнала изменений инвестиционных заявок" style="rounded=1;whiteSpace=wrap;html=1;fillColor=#f5f5f5;strokeColor=#666666;fontColor=#333333;" parent="2nYcpS7fwBgkCxUIMv-R-1" vertex="1">
          <mxGeometry x="212.5" y="402" width="131" height="60" as="geometry" />
        </mxCell>
        <mxCell id="0um7T0gEFgthrOwVaBdq-2" value="P.01.02.03" style="text;html=1;strokeColor=none;fillColor=none;align=center;verticalAlign=middle;whiteSpace=wrap;rounded=0;" parent="2nYcpS7fwBgkCxUIMv-R-1" vertex="1">
          <mxGeometry x="294.5" y="382" width="49" height="20" as="geometry" />
        </mxCell>
        <mxCell id="0um7T0gEFgthrOwVaBdq-3" value="" style="endArrow=none;dashed=1;html=1;dashPattern=1 3;strokeWidth=2;" parent="2nYcpS7fwBgkCxUIMv-R-1" edge="1">
          <mxGeometry width="50" height="50" relative="1" as="geometry">
            <mxPoint x="535" y="92" as="sourcePoint" />
            <mxPoint x="535" y="92" as="targetPoint" />
            <Array as="points">
              <mxPoint x="535" y="363" />
              <mxPoint x="755" y="363" />
              <mxPoint x="755" y="92" />
            </Array>
          </mxGeometry>
        </mxCell>
        <mxCell id="3i0Y3tJkDiM5zF4m9UsL-1" value="Согласование инвестиционной заявки" style="shape=cube;whiteSpace=wrap;html=1;boundedLbl=1;backgroundOutline=1;darkOpacity=0.05;darkOpacity2=0.1;" parent="2nYcpS7fwBgkCxUIMv-R-1" vertex="1">
          <mxGeometry x="556" y="392" width="166" height="80" as="geometry" />
        </mxCell>
        <mxCell id="rqerjDmjj1KPwKfVpqlx-0" value="P.01.03" style="text;html=1;strokeColor=none;fillColor=none;align=center;verticalAlign=middle;whiteSpace=wrap;rounded=0;" parent="2nYcpS7fwBgkCxUIMv-R-1" vertex="1">
          <mxGeometry x="673" y="372" width="49" height="20" as="geometry" />
        </mxCell>
        <mxCell id="Am7DBbpWjkdoNHqLogBd-1" style="edgeStyle=orthogonalEdgeStyle;rounded=0;orthogonalLoop=1;jettySize=auto;html=1;entryX=0;entryY=0.5;entryDx=0;entryDy=0;" parent="2nYcpS7fwBgkCxUIMv-R-1" source="Am7DBbpWjkdoNHqLogBd-0" target="nf6SZ0pj0Dem82uTEeHt-1" edge="1">
          <mxGeometry relative="1" as="geometry" />
        </mxCell>
        <mxCell id="Am7DBbpWjkdoNHqLogBd-0" value="Специалист" style="ellipse;whiteSpace=wrap;html=1;fillColor=#fff2cc;strokeColor=#d6b656;" parent="2nYcpS7fwBgkCxUIMv-R-1" vertex="1">
          <mxGeometry x="50" y="209.5" width="120" height="45" as="geometry" />
        </mxCell>
      </root>
    </mxGraphModel>
  </diagram>
  <diagram id="U4qtcWyaJASmroTgLnzs" name="Page-4">
    <mxGraphModel dx="1054" dy="585" grid="0" gridSize="10" guides="1" tooltips="1" connect="1" arrows="1" fold="1" page="1" pageScale="1" pageWidth="827" pageHeight="1169" math="0" shadow="0">
      <root>
        <mxCell id="hhKOQZns3760f8i8-geJ-0" />
        <mxCell id="hhKOQZns3760f8i8-geJ-1" parent="hhKOQZns3760f8i8-geJ-0" />
        <mxCell id="qpx3Q2VWurJxZG1vas4N-0" value="&lt;font&gt;&lt;span style=&quot;font-size: 16px&quot;&gt;Согласование инвестиционной заявки&amp;nbsp;Р.01.03&lt;/span&gt;&lt;/font&gt;" style="text;html=1;strokeColor=none;fillColor=none;align=center;verticalAlign=middle;whiteSpace=wrap;rounded=0;" parent="hhKOQZns3760f8i8-geJ-1" vertex="1">
          <mxGeometry x="440" y="10" width="364" height="30" as="geometry" />
        </mxCell>
        <mxCell id="bWxfmAh8v33M8ad3hohu-1" style="edgeStyle=orthogonalEdgeStyle;rounded=0;orthogonalLoop=1;jettySize=auto;html=1;entryX=0.5;entryY=0;entryDx=0;entryDy=0;" parent="hhKOQZns3760f8i8-geJ-1" source="QeKE1bZzhpKvt54h3yeR-0" target="bWxfmAh8v33M8ad3hohu-0" edge="1">
          <mxGeometry relative="1" as="geometry" />
        </mxCell>
        <mxCell id="zqzjYhxHLn3TAs3LUrE9-0" value="&lt;font style=&quot;font-size: 12px&quot;&gt;Передача инвестиционной заявки в АСКИД&amp;nbsp;&lt;/font&gt;" style="shape=cube;whiteSpace=wrap;html=1;boundedLbl=1;backgroundOutline=1;darkOpacity=0.05;darkOpacity2=0.1;" parent="hhKOQZns3760f8i8-geJ-1" vertex="1">
          <mxGeometry x="285" y="100" width="166" height="80" as="geometry" />
        </mxCell>
        <mxCell id="djAqqpANRbFnGxB2Wj4n-0" value="P.01.02" style="text;html=1;strokeColor=none;fillColor=none;align=center;verticalAlign=middle;whiteSpace=wrap;rounded=0;" parent="hhKOQZns3760f8i8-geJ-1" vertex="1">
          <mxGeometry x="402" y="80" width="49" height="20" as="geometry" />
        </mxCell>
        <mxCell id="K9nORBQ7vidtKDaq5GNe-0" style="edgeStyle=orthogonalEdgeStyle;rounded=0;orthogonalLoop=1;jettySize=auto;html=1;" parent="hhKOQZns3760f8i8-geJ-1" edge="1">
          <mxGeometry relative="1" as="geometry">
            <mxPoint x="368" y="447" as="targetPoint" />
            <mxPoint x="368" y="410" as="sourcePoint" />
          </mxGeometry>
        </mxCell>
        <mxCell id="bWxfmAh8v33M8ad3hohu-0" value="Интерфейс IDOC&amp;nbsp;&lt;br style=&quot;font-size: 11px&quot;&gt;&lt;span style=&quot;font-size: 11px ; font-family: &amp;#34;calibri&amp;#34; , sans-serif&quot;&gt;ZTRM_PPM002_T_IDOC &amp;amp;&amp;nbsp;&lt;/span&gt;&lt;span style=&quot;font-size: 11px ; font-family: &amp;#34;calibri&amp;#34; , sans-serif&quot;&gt;ZTRM_PPM003_T_IDOC&lt;/span&gt;" style="ellipse;whiteSpace=wrap;html=1;aspect=fixed;fontSize=11;" parent="hhKOQZns3760f8i8-geJ-1" vertex="1">
          <mxGeometry x="326.5" y="330" width="83" height="83" as="geometry" />
        </mxCell>
        <mxCell id="BiBUfmdDDlIzIp6llmOI-3" style="edgeStyle=orthogonalEdgeStyle;rounded=0;orthogonalLoop=1;jettySize=auto;html=1;entryX=0;entryY=0.5;entryDx=0;entryDy=0;" parent="hhKOQZns3760f8i8-geJ-1" source="bWxfmAh8v33M8ad3hohu-2" target="7OKhSnxkhulgmEiVHJU7-1" edge="1">
          <mxGeometry relative="1" as="geometry">
            <Array as="points">
              <mxPoint x="194" y="550" />
            </Array>
          </mxGeometry>
        </mxCell>
        <mxCell id="bWxfmAh8v33M8ad3hohu-2" value="Создание Фонда, Определения проекта, СПП-элементов 2ого и 3его уровня" style="rounded=1;whiteSpace=wrap;html=1;fillColor=#f5f5f5;strokeColor=#666666;fontColor=#333333;" parent="hhKOQZns3760f8i8-geJ-1" vertex="1">
          <mxGeometry x="124" y="432" width="140" height="60" as="geometry" />
        </mxCell>
        <mxCell id="p9UmyLIY0F-mJ5_tziju-0" value="" style="endArrow=none;dashed=1;html=1;dashPattern=1 3;strokeWidth=2;" parent="hhKOQZns3760f8i8-geJ-1" edge="1">
          <mxGeometry width="50" height="50" relative="1" as="geometry">
            <mxPoint x="234" y="50" as="sourcePoint" />
            <mxPoint x="234" y="50" as="targetPoint" />
            <Array as="points">
              <mxPoint x="234" y="215" />
              <mxPoint x="514" y="215" />
              <mxPoint x="514" y="50" />
            </Array>
          </mxGeometry>
        </mxCell>
        <mxCell id="eOaOa8KSe2WHNZNuoLcI-0" value="Система АСКИД" style="text;html=1;strokeColor=none;fillColor=none;align=center;verticalAlign=middle;whiteSpace=wrap;rounded=0;" parent="hhKOQZns3760f8i8-geJ-1" vertex="1">
          <mxGeometry x="409.5" y="50" width="100" height="20" as="geometry" />
        </mxCell>
        <mxCell id="XxF50EYIa_8RG40JXQUQ-1" style="edgeStyle=orthogonalEdgeStyle;rounded=0;orthogonalLoop=1;jettySize=auto;html=1;entryX=1;entryY=0.5;entryDx=0;entryDy=0;" parent="hhKOQZns3760f8i8-geJ-1" source="XxF50EYIa_8RG40JXQUQ-0" target="bWxfmAh8v33M8ad3hohu-2" edge="1">
          <mxGeometry relative="1" as="geometry" />
        </mxCell>
        <mxCell id="7OKhSnxkhulgmEiVHJU7-2" style="edgeStyle=orthogonalEdgeStyle;rounded=0;orthogonalLoop=1;jettySize=auto;html=1;entryX=0.5;entryY=0;entryDx=0;entryDy=0;" parent="hhKOQZns3760f8i8-geJ-1" source="XxF50EYIa_8RG40JXQUQ-0" target="7OKhSnxkhulgmEiVHJU7-1" edge="1">
          <mxGeometry relative="1" as="geometry" />
        </mxCell>
        <mxCell id="XxF50EYIa_8RG40JXQUQ-0" value="" style="shape=sumEllipse;perimeter=ellipsePerimeter;whiteSpace=wrap;html=1;backgroundOutline=1;" parent="hhKOQZns3760f8i8-geJ-1" vertex="1">
          <mxGeometry x="353" y="447" width="30" height="30" as="geometry" />
        </mxCell>
        <mxCell id="7OKhSnxkhulgmEiVHJU7-0" value="P.01.03.01" style="text;html=1;strokeColor=none;fillColor=none;align=center;verticalAlign=middle;whiteSpace=wrap;rounded=0;" parent="hhKOQZns3760f8i8-geJ-1" vertex="1">
          <mxGeometry x="389" y="320" width="49" height="20" as="geometry" />
        </mxCell>
        <mxCell id="JkXyJDRW2Ao36Eujse0S-1" style="edgeStyle=orthogonalEdgeStyle;rounded=0;orthogonalLoop=1;jettySize=auto;html=1;entryX=0.5;entryY=0;entryDx=0;entryDy=0;" parent="hhKOQZns3760f8i8-geJ-1" source="7OKhSnxkhulgmEiVHJU7-1" target="JkXyJDRW2Ao36Eujse0S-0" edge="1">
          <mxGeometry relative="1" as="geometry" />
        </mxCell>
        <mxCell id="7OKhSnxkhulgmEiVHJU7-1" value="Создание подзаказов" style="rounded=1;whiteSpace=wrap;html=1;fillColor=#d5e8d4;strokeColor=#82b366;" parent="hhKOQZns3760f8i8-geJ-1" vertex="1">
          <mxGeometry x="288" y="520" width="160" height="60" as="geometry" />
        </mxCell>
        <mxCell id="BiBUfmdDDlIzIp6llmOI-1" value="P.01.03.02" style="text;html=1;strokeColor=none;fillColor=none;align=center;verticalAlign=middle;whiteSpace=wrap;rounded=0;" parent="hhKOQZns3760f8i8-geJ-1" vertex="1">
          <mxGeometry x="399" y="500" width="49" height="20" as="geometry" />
        </mxCell>
        <mxCell id="ZLezuD-C-r6y4P0OY-YI-1" style="edgeStyle=orthogonalEdgeStyle;rounded=0;orthogonalLoop=1;jettySize=auto;html=1;entryX=0;entryY=0.5;entryDx=0;entryDy=0;" parent="hhKOQZns3760f8i8-geJ-1" source="JkXyJDRW2Ao36Eujse0S-0" target="ZLezuD-C-r6y4P0OY-YI-3" edge="1">
          <mxGeometry relative="1" as="geometry">
            <mxPoint x="484" y="660" as="targetPoint" />
          </mxGeometry>
        </mxCell>
        <mxCell id="ZLezuD-C-r6y4P0OY-YI-13" style="edgeStyle=orthogonalEdgeStyle;rounded=0;orthogonalLoop=1;jettySize=auto;html=1;entryX=0.5;entryY=0;entryDx=0;entryDy=0;" parent="hhKOQZns3760f8i8-geJ-1" source="JkXyJDRW2Ao36Eujse0S-0" target="ZLezuD-C-r6y4P0OY-YI-2" edge="1">
          <mxGeometry relative="1" as="geometry" />
        </mxCell>
        <mxCell id="JkXyJDRW2Ao36Eujse0S-0" value="Подзаказы созданы" style="shape=hexagon;perimeter=hexagonPerimeter2;whiteSpace=wrap;html=1;size=0.07142857142857142;strokeColor=#ae4132;fillColor=#FACDE8;" parent="hhKOQZns3760f8i8-geJ-1" vertex="1">
          <mxGeometry x="298" y="630" width="140" height="60" as="geometry" />
        </mxCell>
        <mxCell id="ZLezuD-C-r6y4P0OY-YI-8" style="edgeStyle=orthogonalEdgeStyle;rounded=0;orthogonalLoop=1;jettySize=auto;html=1;entryX=0.5;entryY=0;entryDx=0;entryDy=0;" parent="hhKOQZns3760f8i8-geJ-1" source="ZLezuD-C-r6y4P0OY-YI-2" target="ZLezuD-C-r6y4P0OY-YI-10" edge="1">
          <mxGeometry relative="1" as="geometry">
            <mxPoint x="368" y="850" as="targetPoint" />
          </mxGeometry>
        </mxCell>
        <mxCell id="ZLezuD-C-r6y4P0OY-YI-2" value="Изменение подзаказов: ведение плановой стоимости на уровне подзаказов, корректировка подзаказов" style="rounded=1;whiteSpace=wrap;html=1;fillColor=#d5e8d4;strokeColor=#82b366;" parent="hhKOQZns3760f8i8-geJ-1" vertex="1">
          <mxGeometry x="288" y="770" width="160" height="70" as="geometry" />
        </mxCell>
        <mxCell id="ZLezuD-C-r6y4P0OY-YI-7" style="edgeStyle=orthogonalEdgeStyle;rounded=0;orthogonalLoop=1;jettySize=auto;html=1;entryX=1;entryY=0.5;entryDx=0;entryDy=0;" parent="hhKOQZns3760f8i8-geJ-1" source="ZLezuD-C-r6y4P0OY-YI-3" target="ZLezuD-C-r6y4P0OY-YI-10" edge="1">
          <mxGeometry relative="1" as="geometry">
            <mxPoint x="564" y="850" as="targetPoint" />
            <Array as="points">
              <mxPoint x="564" y="730" />
              <mxPoint x="640" y="730" />
              <mxPoint x="640" y="900" />
            </Array>
          </mxGeometry>
        </mxCell>
        <mxCell id="ZLezuD-C-r6y4P0OY-YI-3" value="Создание &quot;фиктивного&quot; технического объекта" style="rounded=1;whiteSpace=wrap;html=1;fillColor=#d5e8d4;strokeColor=#82b366;" parent="hhKOQZns3760f8i8-geJ-1" vertex="1">
          <mxGeometry x="504" y="630" width="120" height="60" as="geometry" />
        </mxCell>
        <mxCell id="ZLezuD-C-r6y4P0OY-YI-5" value="P.01.03.03" style="text;html=1;strokeColor=none;fillColor=none;align=center;verticalAlign=middle;whiteSpace=wrap;rounded=0;" parent="hhKOQZns3760f8i8-geJ-1" vertex="1">
          <mxGeometry x="399" y="732" width="45" height="20" as="geometry" />
        </mxCell>
        <mxCell id="ZLezuD-C-r6y4P0OY-YI-6" value="P.01.03.04" style="text;html=1;strokeColor=none;fillColor=none;align=center;verticalAlign=middle;whiteSpace=wrap;rounded=0;" parent="hhKOQZns3760f8i8-geJ-1" vertex="1">
          <mxGeometry x="575" y="610" width="49" height="20" as="geometry" />
        </mxCell>
        <mxCell id="BHkKlGE4q3dLwni6p9RK-2" style="edgeStyle=orthogonalEdgeStyle;rounded=0;orthogonalLoop=1;jettySize=auto;html=1;entryX=0.5;entryY=0;entryDx=0;entryDy=0;" parent="hhKOQZns3760f8i8-geJ-1" source="ZLezuD-C-r6y4P0OY-YI-10" target="ZLezuD-C-r6y4P0OY-YI-12" edge="1">
          <mxGeometry relative="1" as="geometry" />
        </mxCell>
        <mxCell id="ZLezuD-C-r6y4P0OY-YI-10" value="" style="shape=sumEllipse;perimeter=ellipsePerimeter;whiteSpace=wrap;html=1;backgroundOutline=1;" parent="hhKOQZns3760f8i8-geJ-1" vertex="1">
          <mxGeometry x="353" y="885" width="30" height="30" as="geometry" />
        </mxCell>
        <mxCell id="ZLezuD-C-r6y4P0OY-YI-12" value="Подзаказы изменены; готовы для учета фактических затрат" style="shape=hexagon;perimeter=hexagonPerimeter2;whiteSpace=wrap;html=1;size=0.07142857142857142;strokeColor=#ae4132;fillColor=#FACDE8;" parent="hhKOQZns3760f8i8-geJ-1" vertex="1">
          <mxGeometry x="298" y="970" width="140" height="60" as="geometry" />
        </mxCell>
        <mxCell id="ZLezuD-C-r6y4P0OY-YI-14" value="P.01.03.05" style="text;html=1;strokeColor=none;fillColor=none;align=center;verticalAlign=middle;whiteSpace=wrap;rounded=0;" parent="hhKOQZns3760f8i8-geJ-1" vertex="1">
          <mxGeometry x="399" y="750" width="45" height="20" as="geometry" />
        </mxCell>
        <mxCell id="a-ZYZ4mGyUUPPEAr6j9A-1" style="edgeStyle=orthogonalEdgeStyle;rounded=0;orthogonalLoop=1;jettySize=auto;html=1;entryX=0;entryY=0.5;entryDx=0;entryDy=0;" parent="hhKOQZns3760f8i8-geJ-1" source="a-ZYZ4mGyUUPPEAr6j9A-0" target="ZLezuD-C-r6y4P0OY-YI-2" edge="1">
          <mxGeometry relative="1" as="geometry" />
        </mxCell>
        <mxCell id="a-ZYZ4mGyUUPPEAr6j9A-0" value="&lt;font style=&quot;font-size: 12px&quot;&gt;Создание СПП-элементов 5ого уровня&lt;/font&gt;" style="shape=cube;whiteSpace=wrap;html=1;boundedLbl=1;backgroundOutline=1;darkOpacity=0.05;darkOpacity2=0.1;" parent="hhKOQZns3760f8i8-geJ-1" vertex="1">
          <mxGeometry x="64" y="765" width="166" height="80" as="geometry" />
        </mxCell>
        <mxCell id="QeKE1bZzhpKvt54h3yeR-4" style="edgeStyle=orthogonalEdgeStyle;rounded=0;orthogonalLoop=1;jettySize=auto;html=1;entryX=-0.033;entryY=0.5;entryDx=0;entryDy=0;entryPerimeter=0;" parent="hhKOQZns3760f8i8-geJ-1" source="QeKE1bZzhpKvt54h3yeR-0" target="zAFLNarQM9Wjthl5At0A-1" edge="1">
          <mxGeometry relative="1" as="geometry">
            <mxPoint x="514" y="260" as="targetPoint" />
          </mxGeometry>
        </mxCell>
        <mxCell id="QeKE1bZzhpKvt54h3yeR-0" value="Заявка согласована?&lt;br&gt;&amp;nbsp; &amp;nbsp; &amp;nbsp;&lt;br&gt;" style="rhombus;whiteSpace=wrap;html=1;" parent="hhKOQZns3760f8i8-geJ-1" vertex="1">
          <mxGeometry x="321" y="220" width="94" height="80" as="geometry" />
        </mxCell>
        <mxCell id="QeKE1bZzhpKvt54h3yeR-1" style="edgeStyle=orthogonalEdgeStyle;rounded=0;orthogonalLoop=1;jettySize=auto;html=1;entryX=0.5;entryY=0;entryDx=0;entryDy=0;" parent="hhKOQZns3760f8i8-geJ-1" source="zqzjYhxHLn3TAs3LUrE9-0" target="QeKE1bZzhpKvt54h3yeR-0" edge="1">
          <mxGeometry relative="1" as="geometry">
            <mxPoint x="368" y="180" as="sourcePoint" />
            <mxPoint x="368" y="330" as="targetPoint" />
          </mxGeometry>
        </mxCell>
        <mxCell id="QeKE1bZzhpKvt54h3yeR-2" value="Да" style="text;html=1;strokeColor=none;fillColor=none;align=center;verticalAlign=middle;whiteSpace=wrap;rounded=0;" parent="hhKOQZns3760f8i8-geJ-1" vertex="1">
          <mxGeometry x="328" y="300" width="40" height="20" as="geometry" />
        </mxCell>
        <mxCell id="QeKE1bZzhpKvt54h3yeR-5" value="Нет" style="text;html=1;strokeColor=none;fillColor=none;align=center;verticalAlign=middle;whiteSpace=wrap;rounded=0;" parent="hhKOQZns3760f8i8-geJ-1" vertex="1">
          <mxGeometry x="411" y="240" width="40" height="20" as="geometry" />
        </mxCell>
        <mxCell id="j6l5f8zFAApzri2Mxplj-0" value="&lt;span style=&quot;color: rgba(0 , 0 , 0 , 0) ; font-family: monospace ; font-size: 0px&quot;&gt;%3CmxGraphModel%3E%3Croot%3E%3CmxCell%20id%3D%220%22%2F%3E%3CmxCell%20id%3D%221%22%20parent%3D%220%22%2F%3E%3CmxCell%20id%3D%222%22%20value%3D%22%26lt%3Bfont%20style%3D%26quot%3Bfont-size%3A%2012px%26quot%3B%26gt%3B%D0%A4%D0%BE%D1%80%D0%BC%D0%B8%D1%80%D0%BE%D0%B2%D0%B0%D0%BD%D0%B8%D0%B5%20%D0%B8%D0%BD%D0%B2%D0%B5%D1%81%D1%82%D0%B8%D1%86%D0%B8%D0%BE%D0%BD%D0%BD%D0%BE%D0%B9%20%D0%B7%D0%B0%D1%8F%D0%B2%D0%BA%D0%B8%26lt%3B%2Ffont%26gt%3B%22%20style%3D%22shape%3Dcube%3BwhiteSpace%3Dwrap%3Bhtml%3D1%3BboundedLbl%3D1%3BbackgroundOutline%3D1%3BdarkOpacity%3D0.05%3BdarkOpacity2%3D0.1%3B%22%20vertex%3D%221%22%20parent%3D%221%22%3E%3CmxGeometry%20x%3D%22195%22%20y%3D%2292%22%20width%3D%22166%22%20height%3D%2280%22%20as%3D%22geometry%22%2F%3E%3C%2FmxCell%3E%3C%2Froot%3E%3C%2FmxGraphModel%3E&lt;/span&gt;" style="text;html=1;align=center;verticalAlign=middle;resizable=0;points=[];autosize=1;" parent="hhKOQZns3760f8i8-geJ-1" vertex="1">
          <mxGeometry x="588" y="241" width="20" height="20" as="geometry" />
        </mxCell>
        <mxCell id="zAFLNarQM9Wjthl5At0A-1" value="&lt;span&gt;Формирование инвестиционной заявки&lt;/span&gt;" style="shape=cube;whiteSpace=wrap;html=1;boundedLbl=1;backgroundOutline=1;darkOpacity=0.05;darkOpacity2=0.1;" parent="hhKOQZns3760f8i8-geJ-1" vertex="1">
          <mxGeometry x="538" y="220" width="120" height="80" as="geometry" />
        </mxCell>
        <mxCell id="Njm0PdMUFXyLCeiIbLAb-0" value="P.01.01" style="text;html=1;strokeColor=none;fillColor=none;align=center;verticalAlign=middle;whiteSpace=wrap;rounded=0;" parent="hhKOQZns3760f8i8-geJ-1" vertex="1">
          <mxGeometry x="609" y="200" width="49" height="20" as="geometry" />
        </mxCell>
        <mxCell id="1_IJ5qQIbaMj_JVTtIOz-3" style="edgeStyle=orthogonalEdgeStyle;rounded=0;orthogonalLoop=1;jettySize=auto;html=1;entryX=1;entryY=0.5;entryDx=0;entryDy=0;" parent="hhKOQZns3760f8i8-geJ-1" source="1_IJ5qQIbaMj_JVTtIOz-2" target="7OKhSnxkhulgmEiVHJU7-1" edge="1">
          <mxGeometry relative="1" as="geometry" />
        </mxCell>
        <mxCell id="1_IJ5qQIbaMj_JVTtIOz-2" value="Головной заказ" style="shape=hexagon;perimeter=hexagonPerimeter2;whiteSpace=wrap;html=1;size=0.07142857142857142;strokeColor=#ae4132;fillColor=#FACDE8;" parent="hhKOQZns3760f8i8-geJ-1" vertex="1">
          <mxGeometry x="563.5" y="520" width="140" height="60" as="geometry" />
        </mxCell>
        <mxCell id="RCwe3_IpT3134PuYEngB-1" style="edgeStyle=orthogonalEdgeStyle;rounded=0;orthogonalLoop=1;jettySize=auto;html=1;entryX=1;entryY=0.5;entryDx=0;entryDy=0;" parent="hhKOQZns3760f8i8-geJ-1" source="RCwe3_IpT3134PuYEngB-0" target="7OKhSnxkhulgmEiVHJU7-1" edge="1">
          <mxGeometry relative="1" as="geometry" />
        </mxCell>
        <mxCell id="RCwe3_IpT3134PuYEngB-0" value="Специалист" style="ellipse;whiteSpace=wrap;html=1;fillColor=#fff2cc;strokeColor=#d6b656;" parent="hhKOQZns3760f8i8-geJ-1" vertex="1">
          <mxGeometry x="573.5" y="455" width="120" height="45" as="geometry" />
        </mxCell>
        <mxCell id="RCwe3_IpT3134PuYEngB-3" style="edgeStyle=orthogonalEdgeStyle;rounded=0;orthogonalLoop=1;jettySize=auto;html=1;entryX=1;entryY=0.5;entryDx=0;entryDy=0;" parent="hhKOQZns3760f8i8-geJ-1" source="RCwe3_IpT3134PuYEngB-2" target="ZLezuD-C-r6y4P0OY-YI-3" edge="1">
          <mxGeometry relative="1" as="geometry" />
        </mxCell>
        <mxCell id="RCwe3_IpT3134PuYEngB-2" value="Специалист" style="ellipse;whiteSpace=wrap;html=1;fillColor=#fff2cc;strokeColor=#d6b656;" parent="hhKOQZns3760f8i8-geJ-1" vertex="1">
          <mxGeometry x="658" y="637.5" width="120" height="45" as="geometry" />
        </mxCell>
        <mxCell id="RCwe3_IpT3134PuYEngB-5" style="edgeStyle=orthogonalEdgeStyle;rounded=0;orthogonalLoop=1;jettySize=auto;html=1;entryX=1;entryY=0.5;entryDx=0;entryDy=0;" parent="hhKOQZns3760f8i8-geJ-1" source="RCwe3_IpT3134PuYEngB-4" target="ZLezuD-C-r6y4P0OY-YI-2" edge="1">
          <mxGeometry relative="1" as="geometry" />
        </mxCell>
        <mxCell id="RCwe3_IpT3134PuYEngB-4" value="Специалист" style="ellipse;whiteSpace=wrap;html=1;fillColor=#fff2cc;strokeColor=#d6b656;" parent="hhKOQZns3760f8i8-geJ-1" vertex="1">
          <mxGeometry x="504" y="782.5" width="120" height="45" as="geometry" />
        </mxCell>
      </root>
    </mxGraphModel>
  </diagram>
  <diagram id="4-1iVEiEVuCQ9fqzwIXP" name="Page-5-6">
    <mxGraphModel dx="1054" dy="585" grid="0" gridSize="10" guides="1" tooltips="1" connect="1" arrows="1" fold="1" page="1" pageScale="1" pageWidth="827" pageHeight="1169" math="0" shadow="0">
      <root>
        <mxCell id="lddFftHXvSMCqNKw9mLe-0" />
        <mxCell id="lddFftHXvSMCqNKw9mLe-1" parent="lddFftHXvSMCqNKw9mLe-0" />
        <mxCell id="lddFftHXvSMCqNKw9mLe-2" value="&lt;font&gt;&lt;span style=&quot;font-size: 16px&quot;&gt;Формирование плана-графика воздействия на оборудование&amp;nbsp;Р.01.04&lt;/span&gt;&lt;/font&gt;" style="text;html=1;strokeColor=none;fillColor=none;align=center;verticalAlign=middle;whiteSpace=wrap;rounded=0;" parent="lddFftHXvSMCqNKw9mLe-1" vertex="1">
          <mxGeometry x="256" y="10" width="548" height="30" as="geometry" />
        </mxCell>
        <mxCell id="GWlFLUeLgS9lK_s_0RXm-2" style="edgeStyle=orthogonalEdgeStyle;rounded=0;orthogonalLoop=1;jettySize=auto;html=1;entryX=0.5;entryY=0;entryDx=0;entryDy=0;" parent="lddFftHXvSMCqNKw9mLe-1" source="7ppwu4SJuqjfRgD4UtDQ-0" target="GWlFLUeLgS9lK_s_0RXm-0" edge="1">
          <mxGeometry relative="1" as="geometry" />
        </mxCell>
        <mxCell id="7ppwu4SJuqjfRgD4UtDQ-0" value="Инвестиционная заявка и подзаказы ТПиР" style="shape=hexagon;perimeter=hexagonPerimeter2;whiteSpace=wrap;html=1;size=0.07142857142857142;strokeColor=#ae4132;fillColor=#FACDE8;" parent="lddFftHXvSMCqNKw9mLe-1" vertex="1">
          <mxGeometry x="320" y="70" width="140" height="60" as="geometry" />
        </mxCell>
        <mxCell id="GWlFLUeLgS9lK_s_0RXm-1" style="edgeStyle=orthogonalEdgeStyle;rounded=0;orthogonalLoop=1;jettySize=auto;html=1;entryX=0;entryY=0.5;entryDx=0;entryDy=0;" parent="lddFftHXvSMCqNKw9mLe-1" source="7ppwu4SJuqjfRgD4UtDQ-1" target="GWlFLUeLgS9lK_s_0RXm-0" edge="1">
          <mxGeometry relative="1" as="geometry">
            <Array as="points">
              <mxPoint x="180" y="175" />
            </Array>
          </mxGeometry>
        </mxCell>
        <mxCell id="7ppwu4SJuqjfRgD4UtDQ-1" value="Заказы ТОиР" style="shape=hexagon;perimeter=hexagonPerimeter2;whiteSpace=wrap;html=1;size=0.07142857142857142;strokeColor=#ae4132;fillColor=#FACDE8;" parent="lddFftHXvSMCqNKw9mLe-1" vertex="1">
          <mxGeometry x="110" y="70" width="140" height="60" as="geometry" />
        </mxCell>
        <mxCell id="GWlFLUeLgS9lK_s_0RXm-3" style="edgeStyle=orthogonalEdgeStyle;rounded=0;orthogonalLoop=1;jettySize=auto;html=1;entryX=1;entryY=0.5;entryDx=0;entryDy=0;" parent="lddFftHXvSMCqNKw9mLe-1" source="7ppwu4SJuqjfRgD4UtDQ-2" target="GWlFLUeLgS9lK_s_0RXm-0" edge="1">
          <mxGeometry relative="1" as="geometry">
            <Array as="points">
              <mxPoint x="600" y="175" />
            </Array>
          </mxGeometry>
        </mxCell>
        <mxCell id="7ppwu4SJuqjfRgD4UtDQ-2" value="Планируемые заказы ТОиР" style="shape=hexagon;perimeter=hexagonPerimeter2;whiteSpace=wrap;html=1;size=0.07142857142857142;strokeColor=#ae4132;fillColor=#FACDE8;" parent="lddFftHXvSMCqNKw9mLe-1" vertex="1">
          <mxGeometry x="530" y="70" width="140" height="60" as="geometry" />
        </mxCell>
        <mxCell id="GWlFLUeLgS9lK_s_0RXm-5" style="edgeStyle=orthogonalEdgeStyle;rounded=0;orthogonalLoop=1;jettySize=auto;html=1;entryX=0.5;entryY=0;entryDx=0;entryDy=0;" parent="lddFftHXvSMCqNKw9mLe-1" source="GWlFLUeLgS9lK_s_0RXm-0" target="GWlFLUeLgS9lK_s_0RXm-4" edge="1">
          <mxGeometry relative="1" as="geometry" />
        </mxCell>
        <mxCell id="GWlFLUeLgS9lK_s_0RXm-0" value="" style="shape=sumEllipse;perimeter=ellipsePerimeter;whiteSpace=wrap;html=1;backgroundOutline=1;" parent="lddFftHXvSMCqNKw9mLe-1" vertex="1">
          <mxGeometry x="375" y="160" width="30" height="30" as="geometry" />
        </mxCell>
        <mxCell id="OemFu6wO052tQ6zlOylr-1" style="edgeStyle=orthogonalEdgeStyle;rounded=0;orthogonalLoop=1;jettySize=auto;html=1;entryX=0;entryY=0.5;entryDx=0;entryDy=0;" parent="lddFftHXvSMCqNKw9mLe-1" source="GWlFLUeLgS9lK_s_0RXm-4" target="OemFu6wO052tQ6zlOylr-0" edge="1">
          <mxGeometry relative="1" as="geometry" />
        </mxCell>
        <mxCell id="OemFu6wO052tQ6zlOylr-5" style="edgeStyle=orthogonalEdgeStyle;rounded=0;orthogonalLoop=1;jettySize=auto;html=1;entryX=0.5;entryY=0;entryDx=0;entryDy=0;" parent="lddFftHXvSMCqNKw9mLe-1" source="2HCvHpTxxMSzqndion3C-0" target="OemFu6wO052tQ6zlOylr-4" edge="1">
          <mxGeometry relative="1" as="geometry" />
        </mxCell>
        <mxCell id="GWlFLUeLgS9lK_s_0RXm-4" value="Формирование плана-графика воздействия на оборудование" style="rounded=1;whiteSpace=wrap;html=1;fillColor=#d5e8d4;strokeColor=#82b366;" parent="lddFftHXvSMCqNKw9mLe-1" vertex="1">
          <mxGeometry x="270" y="240" width="240" height="50" as="geometry" />
        </mxCell>
        <mxCell id="ss2F_G6jcj1SwrXuwTmJ-9" style="edgeStyle=orthogonalEdgeStyle;rounded=0;orthogonalLoop=1;jettySize=auto;html=1;entryX=0.5;entryY=0;entryDx=0;entryDy=0;" parent="lddFftHXvSMCqNKw9mLe-1" source="OemFu6wO052tQ6zlOylr-0" target="ss2F_G6jcj1SwrXuwTmJ-4" edge="1">
          <mxGeometry relative="1" as="geometry" />
        </mxCell>
        <mxCell id="OemFu6wO052tQ6zlOylr-0" value="Ведение версионности плана-графика" style="rounded=1;whiteSpace=wrap;html=1;fillColor=#f5f5f5;strokeColor=#666666;fontColor=#333333;" parent="lddFftHXvSMCqNKw9mLe-1" vertex="1">
          <mxGeometry x="564.5" y="235" width="131" height="60" as="geometry" />
        </mxCell>
        <mxCell id="OemFu6wO052tQ6zlOylr-2" value="&lt;font&gt;&lt;span style=&quot;font-size: 16px&quot;&gt;Формирование предложений и обоснований в корректировку плана ТОиР Р.01.05&lt;/span&gt;&lt;/font&gt;" style="text;html=1;strokeColor=none;fillColor=none;align=center;verticalAlign=middle;whiteSpace=wrap;rounded=0;" parent="lddFftHXvSMCqNKw9mLe-1" vertex="1">
          <mxGeometry x="484.25" y="450" width="342.5" height="35" as="geometry" />
        </mxCell>
        <mxCell id="ss2F_G6jcj1SwrXuwTmJ-17" style="edgeStyle=orthogonalEdgeStyle;rounded=0;orthogonalLoop=1;jettySize=auto;html=1;entryX=0.5;entryY=0;entryDx=0;entryDy=0;" parent="lddFftHXvSMCqNKw9mLe-1" source="OemFu6wO052tQ6zlOylr-4" target="hpph8Ryr1iIdlX0wm_2_-3" edge="1">
          <mxGeometry relative="1" as="geometry" />
        </mxCell>
        <mxCell id="OemFu6wO052tQ6zlOylr-4" value="План-график сформирован" style="shape=hexagon;perimeter=hexagonPerimeter2;whiteSpace=wrap;html=1;size=0.07142857142857142;strokeColor=#ae4132;fillColor=#FACDE8;" parent="lddFftHXvSMCqNKw9mLe-1" vertex="1">
          <mxGeometry x="320" y="525" width="140" height="45" as="geometry" />
        </mxCell>
        <mxCell id="hpph8Ryr1iIdlX0wm_2_-0" value="P.01.05.03" style="text;html=1;strokeColor=none;fillColor=none;align=center;verticalAlign=middle;whiteSpace=wrap;rounded=0;" parent="lddFftHXvSMCqNKw9mLe-1" vertex="1">
          <mxGeometry x="460" y="305" width="49" height="20" as="geometry" />
        </mxCell>
        <mxCell id="hpph8Ryr1iIdlX0wm_2_-1" value="P.01.04.02" style="text;html=1;strokeColor=none;fillColor=none;align=center;verticalAlign=middle;whiteSpace=wrap;rounded=0;" parent="lddFftHXvSMCqNKw9mLe-1" vertex="1">
          <mxGeometry x="642" y="215" width="49" height="20" as="geometry" />
        </mxCell>
        <mxCell id="hpph8Ryr1iIdlX0wm_2_-2" value="P.01.05.01" style="text;html=1;strokeColor=none;fillColor=none;align=center;verticalAlign=middle;whiteSpace=wrap;rounded=0;" parent="lddFftHXvSMCqNKw9mLe-1" vertex="1">
          <mxGeometry x="411" y="505" width="49" height="20" as="geometry" />
        </mxCell>
        <mxCell id="hpph8Ryr1iIdlX0wm_2_-5" style="edgeStyle=orthogonalEdgeStyle;rounded=0;orthogonalLoop=1;jettySize=auto;html=1;entryX=0.5;entryY=0;entryDx=0;entryDy=0;" parent="lddFftHXvSMCqNKw9mLe-1" source="hpph8Ryr1iIdlX0wm_2_-3" target="hpph8Ryr1iIdlX0wm_2_-4" edge="1">
          <mxGeometry relative="1" as="geometry" />
        </mxCell>
        <mxCell id="hpph8Ryr1iIdlX0wm_2_-3" value="Формирование предложений в корректировку плана ТОиР" style="rounded=1;whiteSpace=wrap;html=1;fillColor=#d5e8d4;strokeColor=#82b366;" parent="lddFftHXvSMCqNKw9mLe-1" vertex="1">
          <mxGeometry x="270" y="605" width="240" height="45" as="geometry" />
        </mxCell>
        <mxCell id="ss2F_G6jcj1SwrXuwTmJ-18" style="edgeStyle=orthogonalEdgeStyle;rounded=0;orthogonalLoop=1;jettySize=auto;html=1;entryX=0;entryY=0.5;entryDx=0;entryDy=0;" parent="lddFftHXvSMCqNKw9mLe-1" source="hpph8Ryr1iIdlX0wm_2_-4" target="ss2F_G6jcj1SwrXuwTmJ-13" edge="1">
          <mxGeometry relative="1" as="geometry" />
        </mxCell>
        <mxCell id="hpph8Ryr1iIdlX0wm_2_-4" value="Предложение сформировано" style="shape=hexagon;perimeter=hexagonPerimeter2;whiteSpace=wrap;html=1;size=0.07142857142857142;strokeColor=#ae4132;fillColor=#FACDE8;" parent="lddFftHXvSMCqNKw9mLe-1" vertex="1">
          <mxGeometry x="320" y="690" width="140" height="50" as="geometry" />
        </mxCell>
        <mxCell id="hpph8Ryr1iIdlX0wm_2_-10" style="edgeStyle=orthogonalEdgeStyle;rounded=0;orthogonalLoop=1;jettySize=auto;html=1;entryX=0;entryY=0.5;entryDx=0;entryDy=0;" parent="lddFftHXvSMCqNKw9mLe-1" source="hpph8Ryr1iIdlX0wm_2_-7" target="hpph8Ryr1iIdlX0wm_2_-15" edge="1">
          <mxGeometry relative="1" as="geometry">
            <mxPoint x="570" y="890" as="targetPoint" />
          </mxGeometry>
        </mxCell>
        <mxCell id="hpph8Ryr1iIdlX0wm_2_-7" value="Создание нового заказа ТОРО (или сообщения ТОРО) для включения технического объекта в план ТОиР" style="rounded=1;whiteSpace=wrap;html=1;fillColor=#d5e8d4;strokeColor=#82b366;" parent="lddFftHXvSMCqNKw9mLe-1" vertex="1">
          <mxGeometry x="270" y="880" width="240" height="60" as="geometry" />
        </mxCell>
        <mxCell id="hpph8Ryr1iIdlX0wm_2_-8" value="P.01.05.02" style="text;html=1;strokeColor=none;fillColor=none;align=center;verticalAlign=middle;whiteSpace=wrap;rounded=0;" parent="lddFftHXvSMCqNKw9mLe-1" vertex="1">
          <mxGeometry x="461" y="585" width="49" height="20" as="geometry" />
        </mxCell>
        <mxCell id="hpph8Ryr1iIdlX0wm_2_-9" value="P.01.05.02.01" style="text;html=1;strokeColor=none;fillColor=none;align=center;verticalAlign=middle;whiteSpace=wrap;rounded=0;" parent="lddFftHXvSMCqNKw9mLe-1" vertex="1">
          <mxGeometry x="440" y="860" width="70" height="20" as="geometry" />
        </mxCell>
        <mxCell id="hpph8Ryr1iIdlX0wm_2_-13" value="P.01.05.02.01" style="text;html=1;strokeColor=none;fillColor=none;align=center;verticalAlign=middle;whiteSpace=wrap;rounded=0;" parent="lddFftHXvSMCqNKw9mLe-1" vertex="1">
          <mxGeometry x="412" y="670" width="49" height="20" as="geometry" />
        </mxCell>
        <mxCell id="hpph8Ryr1iIdlX0wm_2_-12" value="P.01.05.02.02" style="text;html=1;strokeColor=none;fillColor=none;align=center;verticalAlign=middle;whiteSpace=wrap;rounded=0;" parent="lddFftHXvSMCqNKw9mLe-1" vertex="1">
          <mxGeometry x="651" y="860" width="70" height="20" as="geometry" />
        </mxCell>
        <mxCell id="hpph8Ryr1iIdlX0wm_2_-17" style="edgeStyle=orthogonalEdgeStyle;rounded=0;orthogonalLoop=1;jettySize=auto;html=1;entryX=0.5;entryY=0;entryDx=0;entryDy=0;" parent="lddFftHXvSMCqNKw9mLe-1" source="hpph8Ryr1iIdlX0wm_2_-15" target="hpph8Ryr1iIdlX0wm_2_-16" edge="1">
          <mxGeometry relative="1" as="geometry" />
        </mxCell>
        <mxCell id="hpph8Ryr1iIdlX0wm_2_-24" style="edgeStyle=orthogonalEdgeStyle;rounded=0;orthogonalLoop=1;jettySize=auto;html=1;entryX=0;entryY=0.5;entryDx=0;entryDy=0;" parent="lddFftHXvSMCqNKw9mLe-1" source="hpph8Ryr1iIdlX0wm_2_-15" target="GWlFLUeLgS9lK_s_0RXm-4" edge="1">
          <mxGeometry relative="1" as="geometry">
            <Array as="points">
              <mxPoint x="770" y="910" />
              <mxPoint x="770" y="1110" />
              <mxPoint x="100" y="1110" />
              <mxPoint x="100" y="265" />
            </Array>
          </mxGeometry>
        </mxCell>
        <mxCell id="hpph8Ryr1iIdlX0wm_2_-15" value="&lt;span style=&quot;color: rgb(0 , 0 , 0)&quot;&gt;Заказ создан; тех.объект исключен из программы ТПиР&amp;nbsp;&lt;/span&gt;" style="rounded=1;whiteSpace=wrap;html=1;fillColor=#f5f5f5;strokeColor=#666666;fontColor=#333333;" parent="lddFftHXvSMCqNKw9mLe-1" vertex="1">
          <mxGeometry x="590" y="880" width="131" height="60" as="geometry" />
        </mxCell>
        <mxCell id="hpph8Ryr1iIdlX0wm_2_-19" style="edgeStyle=orthogonalEdgeStyle;rounded=0;orthogonalLoop=1;jettySize=auto;html=1;entryX=0.5;entryY=0;entryDx=0;entryDy=0;" parent="lddFftHXvSMCqNKw9mLe-1" source="hpph8Ryr1iIdlX0wm_2_-16" target="hpph8Ryr1iIdlX0wm_2_-18" edge="1">
          <mxGeometry relative="1" as="geometry" />
        </mxCell>
        <mxCell id="hpph8Ryr1iIdlX0wm_2_-16" value="Дополнение заказа необходимыми данными" style="rounded=1;whiteSpace=wrap;html=1;fillColor=#d5e8d4;strokeColor=#82b366;" parent="lddFftHXvSMCqNKw9mLe-1" vertex="1">
          <mxGeometry x="565.5" y="970" width="180" height="30" as="geometry" />
        </mxCell>
        <mxCell id="hpph8Ryr1iIdlX0wm_2_-18" value="Заказ ТОиР изменен" style="shape=hexagon;perimeter=hexagonPerimeter2;whiteSpace=wrap;html=1;size=0.07142857142857142;strokeColor=#ae4132;fillColor=#FACDE8;" parent="lddFftHXvSMCqNKw9mLe-1" vertex="1">
          <mxGeometry x="585.5" y="1030" width="140" height="60" as="geometry" />
        </mxCell>
        <mxCell id="hpph8Ryr1iIdlX0wm_2_-20" value="P.01.05.02.03" style="text;html=1;strokeColor=none;fillColor=none;align=center;verticalAlign=middle;whiteSpace=wrap;rounded=0;" parent="lddFftHXvSMCqNKw9mLe-1" vertex="1">
          <mxGeometry x="675.5" y="950" width="70" height="20" as="geometry" />
        </mxCell>
        <mxCell id="hpph8Ryr1iIdlX0wm_2_-23" value="P.01.04.01" style="text;html=1;strokeColor=none;fillColor=none;align=center;verticalAlign=middle;whiteSpace=wrap;rounded=0;" parent="lddFftHXvSMCqNKw9mLe-1" vertex="1">
          <mxGeometry x="461" y="220" width="49" height="20" as="geometry" />
        </mxCell>
        <mxCell id="ss2F_G6jcj1SwrXuwTmJ-11" style="edgeStyle=orthogonalEdgeStyle;rounded=0;orthogonalLoop=1;jettySize=auto;html=1;entryX=0;entryY=0.5;entryDx=0;entryDy=0;" parent="lddFftHXvSMCqNKw9mLe-1" source="2HCvHpTxxMSzqndion3C-0" target="GWlFLUeLgS9lK_s_0RXm-4" edge="1">
          <mxGeometry relative="1" as="geometry">
            <Array as="points">
              <mxPoint x="100" y="450" />
              <mxPoint x="100" y="265" />
            </Array>
          </mxGeometry>
        </mxCell>
        <mxCell id="2HCvHpTxxMSzqndion3C-0" value="План-график согласован?&amp;nbsp;&amp;nbsp;" style="rhombus;whiteSpace=wrap;html=1;" parent="lddFftHXvSMCqNKw9mLe-1" vertex="1">
          <mxGeometry x="343" y="410" width="94" height="80" as="geometry" />
        </mxCell>
        <mxCell id="2HCvHpTxxMSzqndion3C-3" value="Нет" style="text;html=1;strokeColor=none;fillColor=none;align=center;verticalAlign=middle;whiteSpace=wrap;rounded=0;" parent="lddFftHXvSMCqNKw9mLe-1" vertex="1">
          <mxGeometry x="303" y="430" width="40" height="20" as="geometry" />
        </mxCell>
        <mxCell id="2HCvHpTxxMSzqndion3C-4" value="Да" style="text;html=1;strokeColor=none;fillColor=none;align=center;verticalAlign=middle;whiteSpace=wrap;rounded=0;" parent="lddFftHXvSMCqNKw9mLe-1" vertex="1">
          <mxGeometry x="390" y="485" width="40" height="20" as="geometry" />
        </mxCell>
        <mxCell id="ss2F_G6jcj1SwrXuwTmJ-12" style="edgeStyle=orthogonalEdgeStyle;rounded=0;orthogonalLoop=1;jettySize=auto;html=1;entryX=0.5;entryY=0;entryDx=0;entryDy=0;" parent="lddFftHXvSMCqNKw9mLe-1" source="ss2F_G6jcj1SwrXuwTmJ-0" target="GWlFLUeLgS9lK_s_0RXm-4" edge="1">
          <mxGeometry relative="1" as="geometry" />
        </mxCell>
        <mxCell id="ss2F_G6jcj1SwrXuwTmJ-0" value="Специалист" style="ellipse;whiteSpace=wrap;html=1;fillColor=#fff2cc;strokeColor=#d6b656;" parent="lddFftHXvSMCqNKw9mLe-1" vertex="1">
          <mxGeometry x="50" y="197.5" width="120" height="45" as="geometry" />
        </mxCell>
        <mxCell id="ss2F_G6jcj1SwrXuwTmJ-8" style="edgeStyle=orthogonalEdgeStyle;rounded=0;orthogonalLoop=1;jettySize=auto;html=1;entryX=1;entryY=0.5;entryDx=0;entryDy=0;" parent="lddFftHXvSMCqNKw9mLe-1" source="ss2F_G6jcj1SwrXuwTmJ-4" target="ss2F_G6jcj1SwrXuwTmJ-7" edge="1">
          <mxGeometry relative="1" as="geometry" />
        </mxCell>
        <mxCell id="ss2F_G6jcj1SwrXuwTmJ-4" value="Версия плана-графика создана" style="shape=hexagon;perimeter=hexagonPerimeter2;whiteSpace=wrap;html=1;size=0.07142857142857142;strokeColor=#ae4132;fillColor=#FACDE8;" parent="lddFftHXvSMCqNKw9mLe-1" vertex="1">
          <mxGeometry x="560" y="330" width="140" height="40" as="geometry" />
        </mxCell>
        <mxCell id="ss2F_G6jcj1SwrXuwTmJ-10" style="edgeStyle=orthogonalEdgeStyle;rounded=0;orthogonalLoop=1;jettySize=auto;html=1;entryX=0.5;entryY=0;entryDx=0;entryDy=0;" parent="lddFftHXvSMCqNKw9mLe-1" source="ss2F_G6jcj1SwrXuwTmJ-7" target="2HCvHpTxxMSzqndion3C-0" edge="1">
          <mxGeometry relative="1" as="geometry" />
        </mxCell>
        <mxCell id="ss2F_G6jcj1SwrXuwTmJ-7" value="Согласование плана-графика воздействия на оборудование" style="rounded=1;whiteSpace=wrap;html=1;fillColor=#d5e8d4;strokeColor=#82b366;" parent="lddFftHXvSMCqNKw9mLe-1" vertex="1">
          <mxGeometry x="270" y="325" width="240" height="50" as="geometry" />
        </mxCell>
        <mxCell id="ss2F_G6jcj1SwrXuwTmJ-20" style="edgeStyle=orthogonalEdgeStyle;rounded=0;orthogonalLoop=1;jettySize=auto;html=1;entryX=1;entryY=0.5;entryDx=0;entryDy=0;" parent="lddFftHXvSMCqNKw9mLe-1" source="ss2F_G6jcj1SwrXuwTmJ-13" target="ss2F_G6jcj1SwrXuwTmJ-14" edge="1">
          <mxGeometry relative="1" as="geometry">
            <Array as="points">
              <mxPoint x="663" y="800" />
            </Array>
          </mxGeometry>
        </mxCell>
        <mxCell id="ss2F_G6jcj1SwrXuwTmJ-13" value="Согласование плана-графика воздействия на оборудование" style="rounded=1;whiteSpace=wrap;html=1;fillColor=#d5e8d4;strokeColor=#82b366;" parent="lddFftHXvSMCqNKw9mLe-1" vertex="1">
          <mxGeometry x="550" y="690" width="225.5" height="50" as="geometry" />
        </mxCell>
        <mxCell id="ss2F_G6jcj1SwrXuwTmJ-21" style="edgeStyle=orthogonalEdgeStyle;rounded=0;orthogonalLoop=1;jettySize=auto;html=1;entryX=0.5;entryY=0;entryDx=0;entryDy=0;" parent="lddFftHXvSMCqNKw9mLe-1" source="ss2F_G6jcj1SwrXuwTmJ-14" target="hpph8Ryr1iIdlX0wm_2_-7" edge="1">
          <mxGeometry relative="1" as="geometry" />
        </mxCell>
        <mxCell id="ss2F_G6jcj1SwrXuwTmJ-22" style="edgeStyle=orthogonalEdgeStyle;rounded=0;orthogonalLoop=1;jettySize=auto;html=1;" parent="lddFftHXvSMCqNKw9mLe-1" source="ss2F_G6jcj1SwrXuwTmJ-14" edge="1">
          <mxGeometry relative="1" as="geometry">
            <mxPoint x="100" y="400" as="targetPoint" />
            <Array as="points">
              <mxPoint x="100" y="800" />
              <mxPoint x="100" y="420" />
            </Array>
          </mxGeometry>
        </mxCell>
        <mxCell id="ss2F_G6jcj1SwrXuwTmJ-14" value="План-график согласован?&amp;nbsp;&amp;nbsp;" style="rhombus;whiteSpace=wrap;html=1;" parent="lddFftHXvSMCqNKw9mLe-1" vertex="1">
          <mxGeometry x="343" y="760" width="94" height="80" as="geometry" />
        </mxCell>
        <mxCell id="ss2F_G6jcj1SwrXuwTmJ-19" value="P.01.05.03" style="text;html=1;strokeColor=none;fillColor=none;align=center;verticalAlign=middle;whiteSpace=wrap;rounded=0;" parent="lddFftHXvSMCqNKw9mLe-1" vertex="1">
          <mxGeometry x="726.5" y="670" width="49" height="20" as="geometry" />
        </mxCell>
        <mxCell id="ss2F_G6jcj1SwrXuwTmJ-23" value="Нет" style="text;html=1;strokeColor=none;fillColor=none;align=center;verticalAlign=middle;whiteSpace=wrap;rounded=0;" parent="lddFftHXvSMCqNKw9mLe-1" vertex="1">
          <mxGeometry x="303" y="780" width="40" height="20" as="geometry" />
        </mxCell>
        <mxCell id="ss2F_G6jcj1SwrXuwTmJ-24" value="Да" style="text;html=1;strokeColor=none;fillColor=none;align=center;verticalAlign=middle;whiteSpace=wrap;rounded=0;" parent="lddFftHXvSMCqNKw9mLe-1" vertex="1">
          <mxGeometry x="390" y="840" width="40" height="20" as="geometry" />
        </mxCell>
        <mxCell id="ss2F_G6jcj1SwrXuwTmJ-28" style="edgeStyle=orthogonalEdgeStyle;rounded=0;orthogonalLoop=1;jettySize=auto;html=1;exitX=1;exitY=0.5;exitDx=0;exitDy=0;entryX=0;entryY=0.5;entryDx=0;entryDy=0;" parent="lddFftHXvSMCqNKw9mLe-1" source="ss2F_G6jcj1SwrXuwTmJ-25" target="ss2F_G6jcj1SwrXuwTmJ-7" edge="1">
          <mxGeometry relative="1" as="geometry" />
        </mxCell>
        <mxCell id="ss2F_G6jcj1SwrXuwTmJ-25" value="Специалист" style="ellipse;whiteSpace=wrap;html=1;fillColor=#fff2cc;strokeColor=#d6b656;" parent="lddFftHXvSMCqNKw9mLe-1" vertex="1">
          <mxGeometry x="120" y="327.5" width="120" height="45" as="geometry" />
        </mxCell>
        <mxCell id="ss2F_G6jcj1SwrXuwTmJ-30" style="edgeStyle=orthogonalEdgeStyle;rounded=0;orthogonalLoop=1;jettySize=auto;html=1;entryX=0;entryY=0.5;entryDx=0;entryDy=0;" parent="lddFftHXvSMCqNKw9mLe-1" source="ss2F_G6jcj1SwrXuwTmJ-29" target="hpph8Ryr1iIdlX0wm_2_-3" edge="1">
          <mxGeometry relative="1" as="geometry">
            <Array as="points">
              <mxPoint x="200" y="628" />
              <mxPoint x="250" y="628" />
            </Array>
          </mxGeometry>
        </mxCell>
        <mxCell id="ss2F_G6jcj1SwrXuwTmJ-29" value="Специалист" style="ellipse;whiteSpace=wrap;html=1;fillColor=#fff2cc;strokeColor=#d6b656;" parent="lddFftHXvSMCqNKw9mLe-1" vertex="1">
          <mxGeometry x="140" y="540" width="120" height="45" as="geometry" />
        </mxCell>
        <mxCell id="ss2F_G6jcj1SwrXuwTmJ-32" style="edgeStyle=orthogonalEdgeStyle;rounded=0;orthogonalLoop=1;jettySize=auto;html=1;entryX=1;entryY=0.5;entryDx=0;entryDy=0;" parent="lddFftHXvSMCqNKw9mLe-1" source="ss2F_G6jcj1SwrXuwTmJ-31" target="ss2F_G6jcj1SwrXuwTmJ-13" edge="1">
          <mxGeometry relative="1" as="geometry">
            <Array as="points">
              <mxPoint x="796" y="628" />
              <mxPoint x="796" y="715" />
            </Array>
          </mxGeometry>
        </mxCell>
        <mxCell id="ss2F_G6jcj1SwrXuwTmJ-31" value="Специалист" style="ellipse;whiteSpace=wrap;html=1;fillColor=#fff2cc;strokeColor=#d6b656;" parent="lddFftHXvSMCqNKw9mLe-1" vertex="1">
          <mxGeometry x="655.5" y="605" width="120" height="45" as="geometry" />
        </mxCell>
        <mxCell id="ss2F_G6jcj1SwrXuwTmJ-34" style="edgeStyle=orthogonalEdgeStyle;rounded=0;orthogonalLoop=1;jettySize=auto;html=1;entryX=0;entryY=0.5;entryDx=0;entryDy=0;" parent="lddFftHXvSMCqNKw9mLe-1" source="ss2F_G6jcj1SwrXuwTmJ-33" target="hpph8Ryr1iIdlX0wm_2_-7" edge="1">
          <mxGeometry relative="1" as="geometry" />
        </mxCell>
        <mxCell id="ss2F_G6jcj1SwrXuwTmJ-35" style="edgeStyle=orthogonalEdgeStyle;rounded=0;orthogonalLoop=1;jettySize=auto;html=1;entryX=0;entryY=0.5;entryDx=0;entryDy=0;" parent="lddFftHXvSMCqNKw9mLe-1" source="ss2F_G6jcj1SwrXuwTmJ-33" target="hpph8Ryr1iIdlX0wm_2_-16" edge="1">
          <mxGeometry relative="1" as="geometry">
            <Array as="points">
              <mxPoint x="180" y="985" />
            </Array>
          </mxGeometry>
        </mxCell>
        <mxCell id="ss2F_G6jcj1SwrXuwTmJ-33" value="Специалист" style="ellipse;whiteSpace=wrap;html=1;fillColor=#fff2cc;strokeColor=#d6b656;" parent="lddFftHXvSMCqNKw9mLe-1" vertex="1">
          <mxGeometry x="120" y="887.5" width="120" height="45" as="geometry" />
        </mxCell>
      </root>
    </mxGraphModel>
  </diagram>
  <diagram id="6raxSAiR42x-UsJlRXgH" name="Page-7">
    <mxGraphModel dx="1054" dy="585" grid="0" gridSize="10" guides="1" tooltips="1" connect="1" arrows="1" fold="1" page="1" pageScale="1" pageWidth="827" pageHeight="1169" math="0" shadow="0">
      <root>
        <mxCell id="E2uEG9B_aQFYtEAOop1q-0" />
        <mxCell id="E2uEG9B_aQFYtEAOop1q-1" parent="E2uEG9B_aQFYtEAOop1q-0" />
        <mxCell id="w9eFnT5JxkWsALya2_3a-2" style="edgeStyle=orthogonalEdgeStyle;rounded=0;orthogonalLoop=1;jettySize=auto;html=1;entryX=0.5;entryY=0;entryDx=0;entryDy=0;" parent="E2uEG9B_aQFYtEAOop1q-1" source="sBL5zUxt9M6CVYN_hY-X-0" target="w9eFnT5JxkWsALya2_3a-0" edge="1">
          <mxGeometry relative="1" as="geometry" />
        </mxCell>
        <mxCell id="sBL5zUxt9M6CVYN_hY-X-0" value="Инвестиционная заявка и подзаказы ТПиР" style="shape=hexagon;perimeter=hexagonPerimeter2;whiteSpace=wrap;html=1;size=0.07142857142857142;strokeColor=#ae4132;fillColor=#FACDE8;" parent="E2uEG9B_aQFYtEAOop1q-1" vertex="1">
          <mxGeometry x="200" y="60" width="140" height="60" as="geometry" />
        </mxCell>
        <mxCell id="yrig5m1AK9p7LuVtdSUg-0" value="&lt;font&gt;&lt;span style=&quot;font-size: 16px&quot;&gt;Учет выполнения программы ТПиР&amp;nbsp;Р.01.06&lt;/span&gt;&lt;/font&gt;" style="text;html=1;strokeColor=none;fillColor=none;align=center;verticalAlign=middle;whiteSpace=wrap;rounded=0;" parent="E2uEG9B_aQFYtEAOop1q-1" vertex="1">
          <mxGeometry x="462" y="10" width="342" height="30" as="geometry" />
        </mxCell>
        <mxCell id="f5nMeTH7BdB1MzyDZM_a-5" style="edgeStyle=orthogonalEdgeStyle;rounded=0;orthogonalLoop=1;jettySize=auto;html=1;entryX=0;entryY=0.5;entryDx=0;entryDy=0;" parent="E2uEG9B_aQFYtEAOop1q-1" source="03YL-fQPQ2HeiHD3kpbZ-1" target="w9eFnT5JxkWsALya2_3a-7" edge="1">
          <mxGeometry relative="1" as="geometry">
            <Array as="points">
              <mxPoint x="180" y="335" />
            </Array>
          </mxGeometry>
        </mxCell>
        <mxCell id="03YL-fQPQ2HeiHD3kpbZ-1" value="Проведение и учет фактических затрат на подзаказах" style="rounded=1;whiteSpace=wrap;html=1;fillColor=#d5e8d4;strokeColor=#82b366;" parent="E2uEG9B_aQFYtEAOop1q-1" vertex="1">
          <mxGeometry x="120" y="224.5" width="120" height="60" as="geometry" />
        </mxCell>
        <mxCell id="Jh-JjPKWh2RWZMMa6tFb-0" value="P.01.06.01" style="text;html=1;strokeColor=none;fillColor=none;align=center;verticalAlign=middle;whiteSpace=wrap;rounded=0;" parent="E2uEG9B_aQFYtEAOop1q-1" vertex="1">
          <mxGeometry x="191" y="204.5" width="49" height="20" as="geometry" />
        </mxCell>
        <mxCell id="w9eFnT5JxkWsALya2_3a-6" style="edgeStyle=orthogonalEdgeStyle;rounded=0;orthogonalLoop=1;jettySize=auto;html=1;entryX=1;entryY=0.5;entryDx=0;entryDy=0;" parent="E2uEG9B_aQFYtEAOop1q-1" source="Jh-JjPKWh2RWZMMa6tFb-2" target="w9eFnT5JxkWsALya2_3a-7" edge="1">
          <mxGeometry relative="1" as="geometry">
            <mxPoint x="385" y="350" as="targetPoint" />
            <Array as="points">
              <mxPoint x="380" y="335" />
            </Array>
          </mxGeometry>
        </mxCell>
        <mxCell id="Jh-JjPKWh2RWZMMa6tFb-2" value="Распределение фактических затрат; прямые бухгалтерские проводки" style="rounded=1;whiteSpace=wrap;html=1;fillColor=#d5e8d4;strokeColor=#82b366;" parent="E2uEG9B_aQFYtEAOop1q-1" vertex="1">
          <mxGeometry x="310" y="210" width="150" height="60" as="geometry" />
        </mxCell>
        <mxCell id="w9eFnT5JxkWsALya2_3a-3" style="edgeStyle=orthogonalEdgeStyle;rounded=0;orthogonalLoop=1;jettySize=auto;html=1;entryX=0.433;entryY=-0.006;entryDx=0;entryDy=0;entryPerimeter=0;" parent="E2uEG9B_aQFYtEAOop1q-1" source="w9eFnT5JxkWsALya2_3a-0" target="03YL-fQPQ2HeiHD3kpbZ-1" edge="1">
          <mxGeometry relative="1" as="geometry" />
        </mxCell>
        <mxCell id="w9eFnT5JxkWsALya2_3a-4" style="edgeStyle=orthogonalEdgeStyle;rounded=0;orthogonalLoop=1;jettySize=auto;html=1;entryX=0.439;entryY=-0.028;entryDx=0;entryDy=0;entryPerimeter=0;" parent="E2uEG9B_aQFYtEAOop1q-1" source="w9eFnT5JxkWsALya2_3a-0" target="Jh-JjPKWh2RWZMMa6tFb-2" edge="1">
          <mxGeometry relative="1" as="geometry" />
        </mxCell>
        <mxCell id="w9eFnT5JxkWsALya2_3a-0" value="" style="shape=sumEllipse;perimeter=ellipsePerimeter;whiteSpace=wrap;html=1;backgroundOutline=1;" parent="E2uEG9B_aQFYtEAOop1q-1" vertex="1">
          <mxGeometry x="255" y="165" width="30" height="30" as="geometry" />
        </mxCell>
        <mxCell id="w9eFnT5JxkWsALya2_3a-1" value="P.01.06.02" style="text;html=1;strokeColor=none;fillColor=none;align=center;verticalAlign=middle;whiteSpace=wrap;rounded=0;" parent="E2uEG9B_aQFYtEAOop1q-1" vertex="1">
          <mxGeometry x="411" y="190" width="49" height="20" as="geometry" />
        </mxCell>
        <mxCell id="w9eFnT5JxkWsALya2_3a-9" style="edgeStyle=orthogonalEdgeStyle;rounded=0;orthogonalLoop=1;jettySize=auto;html=1;entryX=0.5;entryY=0;entryDx=0;entryDy=0;" parent="E2uEG9B_aQFYtEAOop1q-1" source="w9eFnT5JxkWsALya2_3a-7" target="w9eFnT5JxkWsALya2_3a-8" edge="1">
          <mxGeometry relative="1" as="geometry" />
        </mxCell>
        <mxCell id="w9eFnT5JxkWsALya2_3a-7" value="" style="shape=sumEllipse;perimeter=ellipsePerimeter;whiteSpace=wrap;html=1;backgroundOutline=1;" parent="E2uEG9B_aQFYtEAOop1q-1" vertex="1">
          <mxGeometry x="255" y="320" width="30" height="30" as="geometry" />
        </mxCell>
        <mxCell id="w9eFnT5JxkWsALya2_3a-12" style="edgeStyle=orthogonalEdgeStyle;rounded=0;orthogonalLoop=1;jettySize=auto;html=1;entryX=0.5;entryY=0;entryDx=0;entryDy=0;" parent="E2uEG9B_aQFYtEAOop1q-1" source="w9eFnT5JxkWsALya2_3a-8" target="w9eFnT5JxkWsALya2_3a-11" edge="1">
          <mxGeometry relative="1" as="geometry" />
        </mxCell>
        <mxCell id="tDH320bqyPT_5_HUDX5i-1" style="edgeStyle=orthogonalEdgeStyle;rounded=0;orthogonalLoop=1;jettySize=auto;html=1;entryX=0;entryY=0.5;entryDx=0;entryDy=0;" parent="E2uEG9B_aQFYtEAOop1q-1" source="w9eFnT5JxkWsALya2_3a-8" target="tDH320bqyPT_5_HUDX5i-0" edge="1">
          <mxGeometry relative="1" as="geometry" />
        </mxCell>
        <mxCell id="w9eFnT5JxkWsALya2_3a-8" value="Подзаказы ТПиР изменены" style="shape=hexagon;perimeter=hexagonPerimeter2;whiteSpace=wrap;html=1;size=0.07142857142857142;strokeColor=#ae4132;fillColor=#FACDE8;" parent="E2uEG9B_aQFYtEAOop1q-1" vertex="1">
          <mxGeometry x="200" y="395" width="140" height="60" as="geometry" />
        </mxCell>
        <mxCell id="8Q30VcasKbSzH5I0Vg1d-1" style="edgeStyle=orthogonalEdgeStyle;rounded=0;orthogonalLoop=1;jettySize=auto;html=1;entryX=0;entryY=0;entryDx=73;entryDy=0;entryPerimeter=0;" parent="E2uEG9B_aQFYtEAOop1q-1" source="w9eFnT5JxkWsALya2_3a-11" target="8Q30VcasKbSzH5I0Vg1d-0" edge="1">
          <mxGeometry relative="1" as="geometry" />
        </mxCell>
        <mxCell id="w9eFnT5JxkWsALya2_3a-11" value="Для оборудования, требующего замену: создание основного средства из &quot;фиктивного&quot; технического объекта" style="rounded=1;whiteSpace=wrap;html=1;fillColor=#d5e8d4;strokeColor=#82b366;" parent="E2uEG9B_aQFYtEAOop1q-1" vertex="1">
          <mxGeometry x="145" y="495" width="250" height="60" as="geometry" />
        </mxCell>
        <mxCell id="lmRotTMxo1XGaCBXCO5U-1" style="edgeStyle=orthogonalEdgeStyle;rounded=0;orthogonalLoop=1;jettySize=auto;html=1;entryX=1;entryY=0.5;entryDx=0;entryDy=0;" parent="E2uEG9B_aQFYtEAOop1q-1" source="d1RdQ87a0aZt3DATEjnE-0" target="tDH320bqyPT_5_HUDX5i-0" edge="1">
          <mxGeometry relative="1" as="geometry" />
        </mxCell>
        <mxCell id="d1RdQ87a0aZt3DATEjnE-0" value="&lt;br&gt;&lt;br&gt;Учет необходимых данных на стороне HR" style="strokeWidth=2;html=1;shape=mxgraph.flowchart.database;whiteSpace=wrap;" parent="E2uEG9B_aQFYtEAOop1q-1" vertex="1">
          <mxGeometry x="551" y="341" width="170" height="167.5" as="geometry" />
        </mxCell>
        <mxCell id="d1RdQ87a0aZt3DATEjnE-1" value="Система HR" style="text;html=1;strokeColor=none;fillColor=none;align=center;verticalAlign=middle;whiteSpace=wrap;rounded=0;" parent="E2uEG9B_aQFYtEAOop1q-1" vertex="1">
          <mxGeometry x="652" y="284.5" width="100" height="20" as="geometry" />
        </mxCell>
        <mxCell id="d1RdQ87a0aZt3DATEjnE-2" value="" style="endArrow=none;dashed=1;html=1;dashPattern=1 3;strokeWidth=2;" parent="E2uEG9B_aQFYtEAOop1q-1" edge="1">
          <mxGeometry width="50" height="50" relative="1" as="geometry">
            <mxPoint x="532" y="284.5" as="sourcePoint" />
            <mxPoint x="532" y="284.5" as="targetPoint" />
            <Array as="points">
              <mxPoint x="532" y="555.5" />
              <mxPoint x="752" y="555.5" />
              <mxPoint x="752" y="284.5" />
            </Array>
          </mxGeometry>
        </mxCell>
        <mxCell id="tDH320bqyPT_5_HUDX5i-2" style="edgeStyle=orthogonalEdgeStyle;rounded=0;orthogonalLoop=1;jettySize=auto;html=1;entryX=0;entryY=0.5;entryDx=0;entryDy=0;entryPerimeter=0;" parent="E2uEG9B_aQFYtEAOop1q-1" source="tDH320bqyPT_5_HUDX5i-0" target="d1RdQ87a0aZt3DATEjnE-0" edge="1">
          <mxGeometry relative="1" as="geometry" />
        </mxCell>
        <mxCell id="lmRotTMxo1XGaCBXCO5U-0" style="edgeStyle=orthogonalEdgeStyle;rounded=0;orthogonalLoop=1;jettySize=auto;html=1;entryX=1;entryY=0.5;entryDx=0;entryDy=0;" parent="E2uEG9B_aQFYtEAOop1q-1" source="tDH320bqyPT_5_HUDX5i-0" target="w9eFnT5JxkWsALya2_3a-8" edge="1">
          <mxGeometry relative="1" as="geometry" />
        </mxCell>
        <mxCell id="tDH320bqyPT_5_HUDX5i-0" value="Интерфейс" style="ellipse;whiteSpace=wrap;html=1;aspect=fixed;" parent="E2uEG9B_aQFYtEAOop1q-1" vertex="1">
          <mxGeometry x="414" y="385" width="80" height="80" as="geometry" />
        </mxCell>
        <mxCell id="f5nMeTH7BdB1MzyDZM_a-1" style="edgeStyle=orthogonalEdgeStyle;rounded=0;orthogonalLoop=1;jettySize=auto;html=1;entryX=1;entryY=0.5;entryDx=0;entryDy=0;" parent="E2uEG9B_aQFYtEAOop1q-1" source="f5nMeTH7BdB1MzyDZM_a-0" target="Jh-JjPKWh2RWZMMa6tFb-2" edge="1">
          <mxGeometry relative="1" as="geometry" />
        </mxCell>
        <mxCell id="f5nMeTH7BdB1MzyDZM_a-0" value="Специалист" style="ellipse;whiteSpace=wrap;html=1;fillColor=#fff2cc;strokeColor=#d6b656;" parent="E2uEG9B_aQFYtEAOop1q-1" vertex="1">
          <mxGeometry x="510" y="150" width="120" height="45" as="geometry" />
        </mxCell>
        <mxCell id="f5nMeTH7BdB1MzyDZM_a-2" value="&lt;span style=&quot;color: rgba(0 , 0 , 0 , 0) ; font-family: monospace ; font-size: 0px&quot;&gt;%3CmxGraphModel%3E%3Croot%3E%3CmxCell%20id%3D%220%22%2F%3E%3CmxCell%20id%3D%221%22%20parent%3D%220%22%2F%3E%3CmxCell%20id%3D%222%22%20value%3D%22%D0%91%D1%83%D1%85%D0%B3%D0%B0%D0%BB%D1%82%D0%B5%D1%80%22%20style%3D%22ellipse%3BwhiteSpace%3Dwrap%3Bhtml%3D1%3BfillColor%3D%23fff2cc%3BstrokeColor%3D%23d6b656%3B%22%20vertex%3D%221%22%20parent%3D%221%22%3E%3CmxGeometry%20x%3D%22510%22%20y%3D%22150%22%20width%3D%22120%22%20height%3D%2245%22%20as%3D%22geometry%22%2F%3E%3C%2FmxCell%3E%3C%2Froot%3E%3C%2FmxGraphModel%3E&lt;/span&gt;" style="text;html=1;align=center;verticalAlign=middle;resizable=0;points=[];autosize=1;" parent="E2uEG9B_aQFYtEAOop1q-1" vertex="1">
          <mxGeometry x="520" y="93" width="20" height="20" as="geometry" />
        </mxCell>
        <mxCell id="f5nMeTH7BdB1MzyDZM_a-4" style="edgeStyle=orthogonalEdgeStyle;rounded=0;orthogonalLoop=1;jettySize=auto;html=1;entryX=0;entryY=0.5;entryDx=0;entryDy=0;" parent="E2uEG9B_aQFYtEAOop1q-1" source="f5nMeTH7BdB1MzyDZM_a-3" target="03YL-fQPQ2HeiHD3kpbZ-1" edge="1">
          <mxGeometry relative="1" as="geometry" />
        </mxCell>
        <mxCell id="f5nMeTH7BdB1MzyDZM_a-3" value="Специалист" style="ellipse;whiteSpace=wrap;html=1;fillColor=#fff2cc;strokeColor=#d6b656;" parent="E2uEG9B_aQFYtEAOop1q-1" vertex="1">
          <mxGeometry x="40" y="120" width="120" height="45" as="geometry" />
        </mxCell>
        <mxCell id="f5nMeTH7BdB1MzyDZM_a-6" value="&lt;span style=&quot;color: rgba(0 , 0 , 0 , 0) ; font-family: monospace ; font-size: 0px&quot;&gt;%3CmxGraphModel%3E%3Croot%3E%3CmxCell%20id%3D%220%22%2F%3E%3CmxCell%20id%3D%221%22%20parent%3D%220%22%2F%3E%3CmxCell%20id%3D%222%22%20value%3D%22%D0%A1%D0%BF%D0%B5%D1%86%D0%B8%D0%B0%D0%BB%D0%B8%D1%81%D1%82%22%20style%3D%22ellipse%3BwhiteSpace%3Dwrap%3Bhtml%3D1%3BfillColor%3D%23fff2cc%3BstrokeColor%3D%23d6b656%3B%22%20vertex%3D%221%22%20parent%3D%221%22%3E%3CmxGeometry%20x%3D%2240%22%20y%3D%22120%22%20width%3D%22120%22%20height%3D%2245%22%20as%3D%22geometry%22%2F%3E%3C%2FmxCell%3E%3C%2Froot%3E%3C%2FmxGraphModel%3E&lt;/span&gt;" style="text;html=1;align=center;verticalAlign=middle;resizable=0;points=[];autosize=1;" parent="E2uEG9B_aQFYtEAOop1q-1" vertex="1">
          <mxGeometry x="256" y="659" width="20" height="20" as="geometry" />
        </mxCell>
        <mxCell id="f5nMeTH7BdB1MzyDZM_a-8" style="edgeStyle=orthogonalEdgeStyle;rounded=0;orthogonalLoop=1;jettySize=auto;html=1;entryX=0;entryY=0.5;entryDx=0;entryDy=0;" parent="E2uEG9B_aQFYtEAOop1q-1" source="f5nMeTH7BdB1MzyDZM_a-7" target="w9eFnT5JxkWsALya2_3a-11" edge="1">
          <mxGeometry relative="1" as="geometry" />
        </mxCell>
        <mxCell id="f5nMeTH7BdB1MzyDZM_a-7" value="Специалист" style="ellipse;whiteSpace=wrap;html=1;fillColor=#fff2cc;strokeColor=#d6b656;" parent="E2uEG9B_aQFYtEAOop1q-1" vertex="1">
          <mxGeometry x="50" y="402.25" width="120" height="45" as="geometry" />
        </mxCell>
        <mxCell id="8Q30VcasKbSzH5I0Vg1d-0" value="Ведение основных средств" style="shape=cube;whiteSpace=wrap;html=1;boundedLbl=1;backgroundOutline=1;darkOpacity=0.05;darkOpacity2=0.1;" parent="E2uEG9B_aQFYtEAOop1q-1" vertex="1">
          <mxGeometry x="197" y="610" width="166" height="80" as="geometry" />
        </mxCell>
        <mxCell id="8Q30VcasKbSzH5I0Vg1d-2" value="P.01.06.03" style="text;html=1;strokeColor=none;fillColor=none;align=center;verticalAlign=middle;whiteSpace=wrap;rounded=0;" parent="E2uEG9B_aQFYtEAOop1q-1" vertex="1">
          <mxGeometry x="346" y="475" width="49" height="20" as="geometry" />
        </mxCell>
      </root>
    </mxGraphModel>
  </diagram>
  <diagram id="bj6z2gNlnDEHx3BUDjnD" name="Page-8">
    <mxGraphModel dx="1422" dy="762" grid="0" gridSize="10" guides="1" tooltips="1" connect="1" arrows="1" fold="1" page="1" pageScale="1" pageWidth="827" pageHeight="1169" math="0" shadow="0">
      <root>
        <mxCell id="M-XGShOCnvAhqz2bpC7C-0" />
        <mxCell id="M-XGShOCnvAhqz2bpC7C-1" parent="M-XGShOCnvAhqz2bpC7C-0" />
        <mxCell id="vl3iMuOjb4cuJmSPNF3b-1" style="edgeStyle=orthogonalEdgeStyle;rounded=0;orthogonalLoop=1;jettySize=auto;html=1;" parent="M-XGShOCnvAhqz2bpC7C-1" source="M-XGShOCnvAhqz2bpC7C-2" edge="1">
          <mxGeometry relative="1" as="geometry">
            <mxPoint x="273" y="220" as="targetPoint" />
          </mxGeometry>
        </mxCell>
        <mxCell id="0UbXOya9vnRyLvr2vjsZ-6" style="edgeStyle=orthogonalEdgeStyle;rounded=0;orthogonalLoop=1;jettySize=auto;html=1;" parent="M-XGShOCnvAhqz2bpC7C-1" source="hVMWz5rtZ2YrvuHAkXPc-0" target="0UbXOya9vnRyLvr2vjsZ-0" edge="1">
          <mxGeometry relative="1" as="geometry">
            <Array as="points">
              <mxPoint x="596" y="130" />
            </Array>
          </mxGeometry>
        </mxCell>
        <mxCell id="M-XGShOCnvAhqz2bpC7C-2" value="&lt;font style=&quot;font-size: 12px&quot;&gt;Формирование плана-графика воздействия на оборудование&lt;/font&gt;" style="shape=cube;whiteSpace=wrap;html=1;boundedLbl=1;backgroundOutline=1;darkOpacity=0.05;darkOpacity2=0.1;" parent="M-XGShOCnvAhqz2bpC7C-1" vertex="1">
          <mxGeometry x="190" y="90" width="166" height="80" as="geometry" />
        </mxCell>
        <mxCell id="oBG5ah98dHN2zzs1VjNZ-0" value="P.01.04" style="text;html=1;strokeColor=none;fillColor=none;align=center;verticalAlign=middle;whiteSpace=wrap;rounded=0;" parent="M-XGShOCnvAhqz2bpC7C-1" vertex="1">
          <mxGeometry x="307" y="70" width="49" height="20" as="geometry" />
        </mxCell>
        <mxCell id="vl3iMuOjb4cuJmSPNF3b-0" value="&lt;font&gt;&lt;span style=&quot;font-size: 16px&quot;&gt;Формирование отчетности Р.01.07&lt;/span&gt;&lt;/font&gt;" style="text;html=1;strokeColor=none;fillColor=none;align=center;verticalAlign=middle;whiteSpace=wrap;rounded=0;" parent="M-XGShOCnvAhqz2bpC7C-1" vertex="1">
          <mxGeometry x="531" y="10" width="273" height="30" as="geometry" />
        </mxCell>
        <mxCell id="0UbXOya9vnRyLvr2vjsZ-0" value="&lt;br&gt;&lt;br&gt;Создание отчетности на стороне АСКИД" style="strokeWidth=2;html=1;shape=mxgraph.flowchart.database;whiteSpace=wrap;" parent="M-XGShOCnvAhqz2bpC7C-1" vertex="1">
          <mxGeometry x="511" y="230" width="170" height="160" as="geometry" />
        </mxCell>
        <mxCell id="0UbXOya9vnRyLvr2vjsZ-1" value="Система АСКИД" style="text;html=1;strokeColor=none;fillColor=none;align=center;verticalAlign=middle;whiteSpace=wrap;rounded=0;" parent="M-XGShOCnvAhqz2bpC7C-1" vertex="1">
          <mxGeometry x="612" y="180" width="100" height="20" as="geometry" />
        </mxCell>
        <mxCell id="0UbXOya9vnRyLvr2vjsZ-2" value="" style="endArrow=none;dashed=1;html=1;dashPattern=1 3;strokeWidth=2;" parent="M-XGShOCnvAhqz2bpC7C-1" edge="1">
          <mxGeometry width="50" height="50" relative="1" as="geometry">
            <mxPoint x="492" y="180" as="sourcePoint" />
            <mxPoint x="492" y="180" as="targetPoint" />
            <Array as="points">
              <mxPoint x="492" y="451" />
              <mxPoint x="712" y="451" />
              <mxPoint x="712" y="180" />
            </Array>
          </mxGeometry>
        </mxCell>
        <mxCell id="0UbXOya9vnRyLvr2vjsZ-4" style="edgeStyle=orthogonalEdgeStyle;rounded=0;orthogonalLoop=1;jettySize=auto;html=1;" parent="M-XGShOCnvAhqz2bpC7C-1" source="0UbXOya9vnRyLvr2vjsZ-3" target="0UbXOya9vnRyLvr2vjsZ-5" edge="1">
          <mxGeometry relative="1" as="geometry">
            <mxPoint x="273" y="330" as="targetPoint" />
          </mxGeometry>
        </mxCell>
        <mxCell id="0UbXOya9vnRyLvr2vjsZ-3" value="Формирование отчетности" style="rounded=1;whiteSpace=wrap;html=1;fillColor=#d5e8d4;strokeColor=#82b366;" parent="M-XGShOCnvAhqz2bpC7C-1" vertex="1">
          <mxGeometry x="213" y="220" width="120" height="60" as="geometry" />
        </mxCell>
        <mxCell id="0UbXOya9vnRyLvr2vjsZ-5" value="Отчеты на стороне &lt;br&gt;SAP S/4HANA" style="strokeWidth=2;html=1;shape=mxgraph.flowchart.multi-document;whiteSpace=wrap;fillColor=#dae8fc;strokeColor=#6c8ebf;" parent="M-XGShOCnvAhqz2bpC7C-1" vertex="1">
          <mxGeometry x="203" y="330" width="140" height="80" as="geometry" />
        </mxCell>
        <mxCell id="hVMWz5rtZ2YrvuHAkXPc-0" value="Интерфейс" style="ellipse;whiteSpace=wrap;html=1;aspect=fixed;" parent="M-XGShOCnvAhqz2bpC7C-1" vertex="1">
          <mxGeometry x="452" y="90" width="80" height="80" as="geometry" />
        </mxCell>
        <mxCell id="hVMWz5rtZ2YrvuHAkXPc-1" style="edgeStyle=orthogonalEdgeStyle;rounded=0;orthogonalLoop=1;jettySize=auto;html=1;" parent="M-XGShOCnvAhqz2bpC7C-1" source="M-XGShOCnvAhqz2bpC7C-2" target="hVMWz5rtZ2YrvuHAkXPc-0" edge="1">
          <mxGeometry relative="1" as="geometry">
            <mxPoint x="356" y="130" as="sourcePoint" />
            <mxPoint x="596" y="230" as="targetPoint" />
          </mxGeometry>
        </mxCell>
        <mxCell id="hVMWz5rtZ2YrvuHAkXPc-2" value="P.01.07.01" style="text;html=1;strokeColor=none;fillColor=none;align=center;verticalAlign=middle;whiteSpace=wrap;rounded=0;" parent="M-XGShOCnvAhqz2bpC7C-1" vertex="1">
          <mxGeometry x="294" y="310" width="49" height="20" as="geometry" />
        </mxCell>
        <mxCell id="hVMWz5rtZ2YrvuHAkXPc-3" value="P.01.07.02" style="text;html=1;strokeColor=none;fillColor=none;align=center;verticalAlign=middle;whiteSpace=wrap;rounded=0;" parent="M-XGShOCnvAhqz2bpC7C-1" vertex="1">
          <mxGeometry x="483" y="70" width="49" height="20" as="geometry" />
        </mxCell>
        <mxCell id="fJskk0IhhxYfHUlGYatj-1" style="edgeStyle=orthogonalEdgeStyle;rounded=0;orthogonalLoop=1;jettySize=auto;html=1;entryX=0;entryY=0.5;entryDx=0;entryDy=0;" parent="M-XGShOCnvAhqz2bpC7C-1" source="fJskk0IhhxYfHUlGYatj-0" target="0UbXOya9vnRyLvr2vjsZ-3" edge="1">
          <mxGeometry relative="1" as="geometry" />
        </mxCell>
        <mxCell id="fJskk0IhhxYfHUlGYatj-0" value="Специалист" style="ellipse;whiteSpace=wrap;html=1;fillColor=#fff2cc;strokeColor=#d6b656;" parent="M-XGShOCnvAhqz2bpC7C-1" vertex="1">
          <mxGeometry x="40" y="227.5" width="120" height="45" as="geometry" />
        </mxCell>
      </root>
    </mxGraphModel>
  </diagram>
</mxfile>
